mtllib chaotic_staff.mtl
# Vertices
v 6.75 -12.25 7.25
v 9.25 -12.25 7.25
v 9.25 4.9375 7.25
v 6.75 4.9375 7.25
v 6.75 -12.25 8.75
v 9.25 -12.25 8.75
v 9.25 4.9375 8.75
v 6.75 4.9375 8.75
v 6.75 10.75 7.25
v 9.25 10.75 7.25
v 9.25 23.0 7.25
v 6.75 23.0 7.25
v 6.75 10.75 8.75
v 9.25 10.75 8.75
v 9.25 23.0 8.75
v 6.75 23.0 8.75
v 8.0 -13.499995326443683 7.25
v 9.249995083510331 -12.250000242933352 7.25
v 8.0 -11.000005159423022 7.25
v 6.75000491648967 -12.250000242933352 7.25
v 8.0 -13.499995326443683 8.75
v 9.249995083510331 -12.250000242933352 8.75
v 8.0 -11.000005159423022 8.75
v 6.75000491648967 -12.250000242933352 8.75
v 7.5 -14.423617314703895 7.505588998360033
v 8.5 -14.423617314703895 7.505588998360033
v 8.5 -11.882948600297857 6.453209559356036
v 7.5 -11.882948600297857 6.453209559356036
v 7.5 -13.945263024247533 8.660438413999142
v 8.5 -13.945263024247533 8.660438413999142
v 8.5 -11.404594309841494 7.608058974995145
v 7.5 -11.404594309841494 7.608058974995145
v 7.5 -11.882949026561825 6.45321364149347
v 8.5 -11.882949026561825 6.45321364149347
v 8.5 -9.342280312155786 7.505593080497466
v 7.5 -9.342280312155786 7.505593080497466
v 7.5 -12.361303317018185 7.608063057132577
v 8.5 -12.361303317018185 7.608063057132577
v 8.5 -9.820634602612147 8.660442496136575
v 7.5 -9.820634602612147 8.660442496136575
v 7.613998681187635 -14.761603265367391 7.5
v 8.53787821369892 -15.144286697732479 7.5
v 9.709846225317008 -12.314905629416664 7.5
v 8.785966692805722 -11.932222197051574 7.5
v 7.613998681187635 -14.761603265367391 8.5
v 8.53787821369892 -15.144286697732479 8.5
v 9.709846225317008 -12.314905629416664 8.5
v 8.785966692805722 -11.932222197051574 8.5
v 7.5 -13.945263024247533 7.339561586000858
v 8.5 -13.945263024247533 7.339561586000858
v 8.5 -11.404594309841494 8.391941025004856
v 7.5 -11.404594309841494 8.391941025004856
v 7.5 -14.423617314703895 8.494411001639968
v 8.5 -14.423617314703895 8.494411001639968
v 8.5 -11.882948600297857 9.546790440643964
v 7.5 -11.882948600297857 9.546790440643964
v 7.5 -12.3613015024312 8.391935011682445
v 8.5 -12.3613015024312 8.391935011682445
v 8.5 -9.820632788025161 7.339555572678448
v 7.5 -9.820632788025161 7.339555572678448
v 7.5 -11.882947211974837 9.546784427321553
v 8.5 -11.882947211974837 9.546784427321553
v 8.5 -9.342278497568799 8.494404988317555
v 7.5 -9.342278497568799 8.494404988317555
v 8.0 -15.682169182872311 7.5
v 8.537881986312982 -15.144287196559329 7.5
v 7.999999999999998 -14.606405210246345 7.5
v 7.462118013687016 -15.144287196559327 7.5
v 8.0 -15.682169182872311 8.5
v 8.537881986312982 -15.144287196559329 8.5
v 7.999999999999998 -14.606405210246345 8.5
v 7.462118013687016 -15.144287196559327 8.5
v 9.017462183671258 -12.594623198620733 7.5
v 10.865221248693832 -11.829256333890553 7.5
v 10.482537816328742 -10.905376801379267 7.5
v 8.634778751306168 -11.670743666109447 7.5
v 9.017462183671258 -12.594623198620733 8.5
v 10.865221248693832 -11.829256333890553 8.5
v 10.482537816328742 -10.905376801379267 8.5
v 8.634778751306168 -11.670743666109447 8.5
v 10.099858751306169 -11.829256333890553 7.5
v 11.4856780500731 -12.403281482438189 7.5
v 11.86836148243819 -11.4794019499269 7.5
v 10.482542183671258 -10.905376801379267 7.5
v 10.099858751306169 -11.829256333890553 8.5
v 11.4856780500731 -12.403281482438189 8.5
v 11.86836148243819 -11.4794019499269 8.5
v 10.482542183671258 -10.905376801379267 8.5
v 11.60319156646177 -11.744565042944956 7.5
v 12.708045912065751 -12.849419388548936 7.5
v 12.973210955010707 -12.58425434560398 7.5
v 11.868356609406726 -11.4794 7.5
v 11.60319156646177 -11.744565042944956 8.5
v 12.708045912065751 -12.849419388548936 8.5
v 12.973210955010707 -12.58425434560398 8.5
v 11.868356609406726 -11.4794 8.5
v 11.485678400689633 -12.40327890816437 7.5
v 12.756012757892652 -12.92946862766637 7.5
v 12.89951904502956 -12.583013802974637 7.5
v 11.629184687826543 -12.05682408347264 7.5
v 11.485678400689633 -12.40327890816437 8.5
v 12.756012757892652 -12.92946862766637 8.5
v 12.89951904502956 -12.583013802974637 8.5
v 11.629184687826543 -12.05682408347264 8.5
v 11.485678400689633 -12.15327890816437 7.5
v 12.063103108509187 -12.392456053392552 7.5
v 12.206609395646096 -12.04600122870082 7.5
v 11.629184687826543 -11.80682408347264 7.5
v 11.485678400689633 -12.15327890816437 8.5
v 12.063103108509187 -12.392456053392552 8.5
v 12.206609395646096 -12.04600122870082 8.5
v 11.629184687826543 -11.80682408347264 8.5
v 12.756001461875181 -12.929469054574394 7.5
v 13.063450092704286 -12.80211966195194 7.5
v 12.973209512518274 -12.584259629390452 7.5
v 12.665760881689168 -12.711609022012906 7.5
v 12.756001461875181 -12.929469054574394 8.5
v 13.063450092704286 -12.80211966195194 8.5
v 12.973209512518274 -12.584259629390452 8.5
v 12.665760881689168 -12.711609022012906 8.5
v 7.462121786301078 -15.144286697732479 7.5
v 8.386001318812365 -14.761603265367391 7.5
v 7.214033307194278 -11.932222197051574 7.5
v 6.290153774682991 -12.314905629416664 7.5
v 7.462121786301078 -15.144286697732479 8.5
v 8.386001318812365 -14.761603265367391 8.5
v 7.214033307194278 -11.932222197051574 8.5
v 6.290153774682991 -12.314905629416664 8.5
v 5.134778751306168 -11.829256333890553 7.5
v 6.982537816328742 -12.594623198620733 7.5
v 7.365221248693832 -11.670743666109447 7.5
v 5.517462183671258 -10.905376801379267 7.5
v 5.134778751306168 -11.829256333890553 8.5
v 6.982537816328742 -12.594623198620733 8.5
v 7.365221248693832 -11.670743666109447 8.5
v 5.517462183671258 -10.905376801379267 8.5
v 4.514321949926901 -12.403281482438189 7.5
v 5.900141248693831 -11.829256333890553 7.5
v 5.517457816328742 -10.905376801379267 7.5
v 4.131638517561811 -11.4794019499269 7.5
v 4.514321949926901 -12.403281482438189 8.5
v 5.900141248693831 -11.829256333890553 8.5
v 5.517457816328742 -10.905376801379267 8.5
v 4.131638517561811 -11.4794019499269 8.5
v 3.2439872421073477 -12.92946862766637 7.5
v 4.5143215993103665 -12.40327890816437 7.5
v 4.370815312173458 -12.05682408347264 7.5
v 3.100480954970439 -12.583013802974637 7.5
v 3.2439872421073477 -12.92946862766637 8.5
v 4.5143215993103665 -12.40327890816437 8.5
v 4.370815312173458 -12.05682408347264 8.5
v 3.100480954970439 -12.583013802974637 8.5
v 3.9368968914908127 -12.392456053392552 7.5
v 4.5143215993103665 -12.15327890816437 7.5
v 4.370815312173458 -11.80682408347264 7.5
v 3.793390604353904 -12.04600122870082 7.5
v 3.9368968914908127 -12.392456053392552 8.5
v 4.5143215993103665 -12.15327890816437 8.5
v 4.370815312173458 -11.80682408347264 8.5
v 3.793390604353904 -12.04600122870082 8.5
v 3.291954087934249 -12.849419388548936 7.5
v 4.396808433538229 -11.744565042944956 7.5
v 4.131643390593274 -11.4794 7.5
v 3.026789044989293 -12.58425434560398 7.5
v 3.291954087934249 -12.849419388548936 8.5
v 4.396808433538229 -11.744565042944956 8.5
v 4.131643390593274 -11.4794 8.5
v 3.026789044989293 -12.58425434560398 8.5
v 2.9365499072957135 -12.80211966195194 7.5
v 3.2439985381248193 -12.929469054574394 7.5
v 3.3342391183108315 -12.711609022012906 7.5
v 3.0267904874817253 -12.584259629390452 7.5
v 2.9365499072957135 -12.80211966195194 8.5
v 3.2439985381248193 -12.929469054574394 8.5
v 3.3342391183108315 -12.711609022012906 8.5
v 3.0267904874817253 -12.584259629390452 8.5
v 5.86705643076972 4.8248126711529835 7.5
v 6.790935963281006 4.442129238787894 7.5
v 7.747644544193731 6.751828070066111 7.5
v 6.823765011682444 7.1345115024312005 7.5
v 5.86705643076972 4.8248126711529835 8.5
v 6.790935963281006 4.442129238787894 8.5
v 7.747644544193731 6.751828070066111 8.5
v 6.823765011682444 7.1345115024312005 8.5
v 7.094363124062712 6.481227912568032 7.5
v 7.747647580296768 6.751827194427711 7.5
v 7.477048298437089 7.405111650661766 7.5
v 6.823763842203033 7.1345123688020875 7.5
v 7.094363124062712 6.481227912568032 8.5
v 7.747647580296768 6.751827194427711 8.5
v 7.477048298437089 7.405111650661766 8.5
v 6.823763842203033 7.1345123688020875 8.5
v 6.82376771895593 8.515109932092141 7.5
v 7.47704293639466 8.244514477066785 7.5
v 7.747642218254339 8.897798933300841 7.5
v 7.094367000815608 9.168394388326197 7.5
v 6.82376771895593 8.515109932092141 8.5
v 7.47704293639466 8.244514477066785 8.5
v 7.747642218254339 8.897798933300841 8.5
v 7.094367000815608 9.168394388326197 8.5
v 8.252355455806269 2.8978019299338893 7.5
v 9.176234988317557 2.5151184975687997 7.5
v 10.13294356923028 4.824817328847017 7.5
v 9.209064036718994 5.207500761212106 7.5
v 8.252355455806269 2.8978019299338893 8.5
v 9.176234988317557 2.5151184975687997 8.5
v 10.13294356923028 4.824817328847017 8.5
v 9.209064036718994 5.207500761212106 8.5
v 6.823765011682444 2.5151184975687997 7.5
v 7.747644544193731 2.8978019299338893 7.5
v 6.790935963281006 5.207500761212106 7.5
v 5.86705643076972 4.824817328847017 7.5
v 6.823765011682444 2.5151184975687997 8.5
v 7.747644544193731 2.8978019299338893 8.5
v 6.790935963281006 5.207500761212106 8.5
v 5.86705643076972 4.824817328847017 8.5
v 9.209064036718994 4.442129238787894 7.5
v 10.13294356923028 4.8248126711529835 7.5
v 9.176234988317557 7.1345115024312005 7.5
v 8.252355455806269 6.751828070066111 7.5
v 9.209064036718994 4.442129238787894 8.5
v 10.13294356923028 4.8248126711529835 8.5
v 9.176234988317557 7.1345115024312005 8.5
v 8.252355455806269 6.751828070066111 8.5
v 6.823765011682444 8.5151184975688 7.5
v 7.747644544193731 8.89780192993389 7.5
v 6.790935963281006 11.207500761212106 7.5
v 5.86705643076972 10.824817328847017 7.5
v 6.823765011682444 8.5151184975688 8.5
v 7.747644544193731 8.89780192993389 8.5
v 6.790935963281006 11.207500761212106 8.5
v 5.86705643076972 10.824817328847017 8.5
v 5.86705643076972 10.824812671152984 7.5
v 6.790935963281006 10.442129238787894 7.5
v 7.747644544193731 12.75182807006611 7.5
v 6.823765011682444 13.1345115024312 7.5
v 5.86705643076972 10.824812671152984 8.5
v 6.790935963281006 10.442129238787894 8.5
v 7.747644544193731 12.75182807006611 8.5
v 6.823765011682444 13.1345115024312 8.5
v 8.252355455806269 8.89780192993389 7.5
v 9.176234988317557 8.5151184975688 7.5
v 10.13294356923028 10.824817328847017 7.5
v 9.209064036718994 11.207500761212106 7.5
v 8.252355455806269 8.89780192993389 8.5
v 9.176234988317557 8.5151184975688 8.5
v 10.13294356923028 10.824817328847017 8.5
v 9.209064036718994 11.207500761212106 8.5
v 9.209064036718994 10.442129238787894 7.5
v 10.13294356923028 10.824812671152984 7.5
v 9.176234988317557 13.1345115024312 7.5
v 8.252355455806269 12.75182807006611 7.5
v 9.209064036718994 10.442129238787894 8.5
v 10.13294356923028 10.824812671152984 8.5
v 9.176234988317557 13.1345115024312 8.5
v 8.252355455806269 12.75182807006611 8.5
v 8.0 4.8125 7.292893218813452
v 8.707106781186548 4.8125 8.0
v 8.707106781186548 10.8125 8.0
v 8.0 10.8125 7.292893218813452
v 7.292893218813452 4.8125 8.0
v 8.0 4.8125 8.707106781186548
v 8.0 10.8125 8.707106781186548
v 7.292893218813452 10.8125 8.0
v 8.52295706360534 8.244514477066785 7.5
v 9.17623228104407 8.515109932092141 7.5
v 8.905632999184391 9.168394388326197 7.5
v 8.25235778174566 8.897798933300841 7.5
v 8.52295706360534 8.244514477066785 8.5
v 9.17623228104407 8.515109932092141 8.5
v 8.905632999184391 9.168394388326197 8.5
v 8.25235778174566 8.897798933300841 8.5
v 8.252352419703232 6.751827194427711 7.5
v 8.905636875937288 6.481227912568032 7.5
v 9.176236157796968 7.1345123688020875 7.5
v 8.522951701562912 7.405111650661766 7.5
v 8.252352419703232 6.751827194427711 8.5
v 8.905636875937288 6.481227912568032 8.5
v 9.176236157796968 7.1345123688020875 8.5
v 8.522951701562912 7.405111650661766 8.5
v 6.749998498414886 4.937501401126379 7.21875
v 8.00000065299303 3.687499246548236 7.21875
v 9.250002807571173 4.937501401126379 7.21875
v 8.00000065299303 6.187503555704523 7.21875
v 6.749998498414886 4.937501401126379 8.78125
v 8.00000065299303 3.687499246548236 8.78125
v 9.250002807571173 4.937501401126379 8.78125
v 8.00000065299303 6.187503555704523 8.78125
v 6.749998498414887 10.75000140112638 7.21875
v 8.00000065299303 9.499999246548237 7.21875
v 9.250002807571173 10.75000140112638 7.21875
v 8.000000652993029 12.000003555704522 7.21875
v 6.749998498414887 10.75000140112638 8.78125
v 8.00000065299303 9.499999246548237 8.78125
v 9.250002807571173 10.75000140112638 8.78125
v 8.000000652993029 12.000003555704522 8.78125
v 0.7832245877065569 23.251744619239023 7.25
v 6.615214136684054 20.836055452434394 7.25
v 6.997897569049144 21.75993498494568 7.25
v 1.1659080200716465 24.17562415175031 7.25
v 0.7832245877065569 23.251744619239023 8.71875
v 6.615214136684054 20.836055452434394 8.71875
v 6.997897569049144 21.75993498494568 8.71875
v 1.1659080200716465 24.17562415175031 8.71875
v -0.2906687144060385 21.802379439003996 7.75
v 6.638427779428612 18.932253696265825 7.75
v 7.30812378606752 20.549042878160574 7.75
v 0.3790272922328688 23.41916862089875 7.75
v -0.2906687144060385 21.802379439003996 8.29688
v 6.638427779428612 18.932253696265825 8.29688
v 7.30812378606752 20.549042878160574 8.29688
v 0.3790272922328688 23.41916862089875 8.29688
v 6.833018841417714 16.66698246416926 7.76563
v 7.525928490801179 16.953995038443075 7.76563
v 6.377878193705909 19.725633635976937 7.76563
v 5.6849685443224445 19.438621061703117 7.76563
v 6.833018841417714 16.66698246416926 8.28125
v 7.525928490801179 16.953995038443075 8.28125
v 6.377878193705909 19.725633635976937 8.28125
v 5.6849685443224445 19.438621061703117 8.28125
v -3.4510881752439104 21.448005853021524 7.20313
v 3.016068552335097 24.126789879577153 7.20313
v 2.6094674054471887 25.108411882870392 7.20313
v -3.8576893221318187 22.429627856314767 7.20313
v -3.4510881752439104 21.448005853021524 8.59375
v 3.016068552335097 24.126789879577153 8.59375
v 2.6094674054471887 25.108411882870392 8.59375
v -3.8576893221318187 22.429627856314767 8.59375
v 2.60947 24.42092 7.20313
v 4.73447 24.42092 7.20313
v 4.73447 25.10842 7.20313
v 2.60947 25.10842 7.20313
v 2.60947 24.42092 8.59375
v 4.73447 24.42092 8.59375
v 4.73447 25.10842 8.59375
v 2.60947 25.10842 8.59375
v 4.3907171093939725 24.764663021459725 7.20313
v 4.734470000000001 24.420910130853695 7.20313
v 5.078222890606028 24.76466302145972 7.20313
v 4.73447 25.10841591206575 7.20313
v 4.3907171093939725 24.764663021459725 8.59375
v 4.734470000000001 24.420910130853695 8.59375
v 5.078222890606028 24.76466302145972 8.59375
v 4.73447 25.10841591206575 8.59375
v 3.0160728698380734 24.126788180325594 7.20313
v 4.170922285477182 24.605142470781956 7.20313
v 4.051333712863092 24.893854824691733 7.20313
v 2.8964842972239833 24.41550053423537 7.20313
v 3.0160728698380734 24.126788180325594 8.59375
v 4.170922285477182 24.605142470781956 8.59375
v 4.051333712863092 24.893854824691733 8.59375
v 2.8964842972239833 24.41550053423537 8.59375
v -2.9009807412190938 20.119929025036548 7.71875
v 2.6422964538486258 22.416029619227086 7.71875
v 2.092189019823809 23.74410644721206 7.71875
v -3.4510881752439104 21.448005853021524 7.71875
v -2.9009807412190938 20.119929025036548 8.28125
v 2.6422964538486258 22.416029619227086 8.28125
v 2.092189019823809 23.74410644721206 8.28125
v -3.4510881752439104 21.448005853021524 8.28125
v -6.6861135623730945 18.186989656440357 7.25
v -3.150579656440357 21.722523562373095 7.25
v -3.8576864376269047 22.42963034355964 7.25
v -7.393220343559642 18.894096437626903 7.25
v -6.6861135623730945 18.186989656440357 8.51563
v -3.150579656440357 21.722523562373095 8.51563
v -3.8576864376269047 22.42963034355964 8.51563
v -7.393220343559642 18.894096437626903 8.51563
v -7.39322 18.18699 7.25
v -6.68611 18.18699 7.25
v -6.68611 18.8941 7.25
v -7.39322 18.8941 7.25
v -7.39322 18.18699 8.51563
v -6.68611 18.18699 8.51563
v -6.68611 18.8941 8.51563
v -7.39322 18.8941 8.51563
v -6.076813225381366 18.804454804698718 7.75
v -4.921963809742257 19.28280909515508 7.75
v -5.113305525924802 19.744748861410724 7.75
v -6.26815494156391 19.26639457095436 7.75
v -6.076813225381366 18.804454804698718 8.25
v -4.921963809742257 19.28280909515508 8.25
v -5.113305525924802 19.744748861410724 8.25
v -6.26815494156391 19.26639457095436 8.25
v -4.921965071816406 19.282808923230625 7.75
v -2.900978594447966 20.11992893152926 7.75
v -3.4510860284727825 21.448005759514235 7.75
v -5.472072505841222 20.6108857512156 7.75
v -4.921965071816406 19.282808923230625 8.25
v -2.900978594447966 20.11992893152926 8.25
v -3.4510860284727825 21.448005759514235 8.25
v -5.472072505841222 20.6108857512156 8.25
v 6.232233047033631 20.0 7
v 8.0 18.23223304703363 7
v 9.767766952966369 20.0 7
v 8.0 21.76776695296637 7
v 6.232233047033631 20.0 9
v 8.0 18.23223304703363 9
v 9.767766952966369 20.0 9
v 8.0 21.76776695296637 9
v 8.543813132923542 21.21966991411009 7
v 9.250919914110089 20.512563132923542 7
v 9.958026695296637 21.21966991411009 7
v 9.250919914110089 21.92677669529664 7
v 8.543813132923542 21.21966991411009 9
v 9.250919914110089 20.512563132923542 9
v 9.958026695296637 21.21966991411009 9
v 9.250919914110089 21.92677669529664 9
v 8.543813132923542 18.78216991411009 7
v 9.250919914110089 18.075063132923542 7
v 9.958026695296637 18.78216991411009 7
v 9.250919914110089 19.48927669529664 7
v 8.543813132923542 18.78216991411009 9
v 9.250919914110089 18.075063132923542 9
v 9.958026695296637 18.78216991411009 9
v 9.250919914110089 19.48927669529664 9
v 6.7490800858899105 18.075063132923542 7
v 7.456186867076458 18.78216991411009 7
v 6.7490800858899105 19.48927669529664 7
v 6.0419733047033635 18.78216991411009 7
v 6.7490800858899105 18.075063132923542 9
v 7.456186867076458 18.78216991411009 9
v 6.7490800858899105 19.48927669529664 9
v 6.0419733047033635 18.78216991411009 9
v 6.7490800858899105 20.512563132923542 7
v 7.456186867076458 21.21966991411009 7
v 6.7490800858899105 21.92677669529664 7
v 6.0419733047033635 21.21966991411009 7
v 6.7490800858899105 20.512563132923542 9
v 7.456186867076458 21.21966991411009 9
v 6.7490800858899105 21.92677669529664 9
v 6.0419733047033635 21.21966991411009 9
v 9.361572220571388 18.932253696265825 7.75
v 16.29066871440604 21.802379439003996 7.75
v 15.62097270776713 23.41916862089875 7.75
v 8.691876213932481 20.549042878160574 7.75
v 9.361572220571388 18.932253696265825 8.29688
v 16.29066871440604 21.802379439003996 8.29688
v 15.62097270776713 23.41916862089875 8.29688
v 8.691876213932481 20.549042878160574 8.29688
v 8.47407150919882 16.953995038443075 7.76563
v 9.166981158582287 16.66698246416926 7.76563
v 10.315031455677556 19.438621061703117 7.76563
v 9.622121806294091 19.725633635976937 7.76563
v 8.47407150919882 16.953995038443075 8.28125
v 9.166981158582287 16.66698246416926 8.28125
v 10.315031455677556 19.438621061703117 8.28125
v 9.622121806294091 19.725633635976937 8.28125
v 9.384785863315946 20.836055452434394 7.25
v 15.159032941511487 23.227826904716203 7.25
v 14.776349509146398 24.15170643722749 7.25
v 9.002102430950856 21.75993498494568 7.25
v 9.384785863315946 20.836055452434394 8.71875
v 15.159032941511487 23.227826904716203 8.71875
v 14.776349509146398 24.15170643722749 8.71875
v 9.002102430950856 21.75993498494568 8.71875
v 11.265529999999998 24.420910130853695 7.20313
v 11.609282890606028 24.764663021459725 7.20313
v 11.26553 25.10841591206575 7.20313
v 10.921777109393972 24.76466302145972 7.20313
v 11.265529999999998 24.420910130853695 8.59375
v 11.609282890606028 24.764663021459725 8.59375
v 11.26553 25.10841591206575 8.59375
v 10.921777109393972 24.76466302145972 8.59375
v 11.26553 24.42092 7.20313
v 13.39053 24.42092 7.20313
v 13.39053 25.10842 7.20313
v 11.26553 25.10842 7.20313
v 11.26553 24.42092 8.59375
v 13.39053 24.42092 8.59375
v 13.39053 25.10842 8.59375
v 11.26553 25.10842 8.59375
v 11.82907771452282 24.605142470781956 7.20313
v 12.983927130161927 24.126788180325594 7.20313
v 13.103515702776019 24.41550053423537 7.20313
v 11.94866628713691 24.893854824691733 7.20313
v 11.82907771452282 24.605142470781956 8.59375
v 12.983927130161927 24.126788180325594 8.59375
v 13.103515702776019 24.41550053423537 8.59375
v 11.94866628713691 24.893854824691733 8.59375
v 12.983931447664903 24.126789879577153 7.20313
v 19.45108817524391 21.448005853021524 7.20313
v 19.85768932213182 22.429627856314767 7.20313
v 13.39053259455281 25.108411882870392 7.20313
v 12.983931447664903 24.126789879577153 8.59375
v 19.45108817524391 21.448005853021524 8.59375
v 19.85768932213182 22.429627856314767 8.59375
v 13.39053259455281 25.108411882870392 8.59375
v 13.357703546151374 22.416029619227086 7.71875
v 18.900980741219094 20.119929025036548 7.71875
v 19.45108817524391 21.448005853021524 7.71875
v 13.90781098017619 23.74410644721206 7.71875
v 13.357703546151374 22.416029619227086 8.28125
v 18.900980741219094 20.119929025036548 8.28125
v 19.45108817524391 21.448005853021524 8.28125
v 13.90781098017619 23.74410644721206 8.28125
v 18.900978594447963 20.11992893152926 7.75
v 20.921965071816405 19.282808923230625 7.75
v 21.472072505841222 20.6108857512156 7.75
v 19.45108602847278 21.448005759514235 7.75
v 18.900978594447963 20.11992893152926 8.25
v 20.921965071816405 19.282808923230625 8.25
v 21.472072505841222 20.6108857512156 8.25
v 19.45108602847278 21.448005759514235 8.25
v 19.150579656440357 21.722523562373095 7.25
v 22.686113562373095 18.186989656440357 7.25
v 23.39322034355964 18.894096437626903 7.25
v 19.857686437626903 22.42963034355964 7.25
v 19.150579656440357 21.722523562373095 8.51563
v 22.686113562373095 18.186989656440357 8.51563
v 23.39322034355964 18.894096437626903 8.51563
v 19.857686437626903 22.42963034355964 8.51563
v 20.92196380974226 19.28280909515508 7.75
v 22.076813225381365 18.804454804698718 7.75
v 22.26815494156391 19.26639457095436 7.75
v 21.113305525924805 19.744748861410724 7.75
v 20.92196380974226 19.28280909515508 8.25
v 22.076813225381365 18.804454804698718 8.25
v 22.26815494156391 19.26639457095436 8.25
v 21.113305525924805 19.744748861410724 8.25
v 22.68611 18.18699 7.25
v 23.39322 18.18699 7.25
v 23.39322 18.8941 7.25
v 22.68611 18.8941 7.25
v 22.68611 18.18699 8.51563
v 23.39322 18.18699 8.51563
v 23.39322 18.8941 8.51563
v 22.68611 18.8941 8.51563

# Texture Coords
vt 0.0 1.0
vt 0.078125 1.0
vt 0.078125 0.46875
vt 0.0 0.46875
vt 0.375 1.0
vt 0.421875 1.0
vt 0.421875 0.46875
vt 0.375 0.46875
vt 0.09375 1.0
vt 0.171875 1.0
vt 0.171875 0.46875
vt 0.09375 0.46875
vt 0.1875 0.59375
vt 0.234375 0.59375
vt 0.234375 0.0625
vt 0.1875 0.0625
vt 0.515625 0.703125
vt 0.4375 0.703125
vt 0.4375 0.75
vt 0.515625 0.75
vt 0.515625 0.6875
vt 0.4375 0.6875
vt 0.4375 0.640625
vt 0.515625 0.640625
vt 0.1875 1.0
vt 0.265625 1.0
vt 0.265625 0.609375
vt 0.1875 0.609375
vt 0.25 0.59375
vt 0.296875 0.59375
vt 0.296875 0.203125
vt 0.25 0.203125
vt 0.28125 1.0
vt 0.359375 1.0
vt 0.359375 0.609375
vt 0.28125 0.609375
vt 0.3125 0.59375
vt 0.359375 0.59375
vt 0.359375 0.203125
vt 0.3125 0.203125
vt 0.515625 0.828125
vt 0.4375 0.828125
vt 0.4375 0.875
vt 0.515625 0.875
vt 0.515625 0.8125
vt 0.4375 0.8125
vt 0.4375 0.765625
vt 0.515625 0.765625
vt 0.4375 1.0
vt 0.5 1.0
vt 0.5 0.9375
vt 0.4375 0.9375
vt 0.4375 0.625
vt 0.484375 0.625
vt 0.484375 0.5625
vt 0.4375 0.5625
vt 0.4375 0.9375
vt 0.5 0.9375
vt 0.5 0.875
vt 0.4375 0.875
vt 0.4375 0.5625
vt 0.484375 0.5625
vt 0.484375 0.5
vt 0.4375 0.5
vt 0.5625 0.953125
vt 0.5 0.953125
vt 0.5 1.0
vt 0.5625 1.0
vt 0.5625 0.9375
vt 0.5 0.9375
vt 0.5 0.890625
vt 0.5625 0.890625
vt 0.25 0.8125
vt 0.28125 0.8125
vt 0.28125 0.7265625
vt 0.25 0.7265625
vt 0.0 1.0
vt 0.0390625 1.0
vt 0.0390625 0.9140625
vt 0.0 0.9140625
vt 0.0 0.71875
vt 0.03125 0.71875
vt 0.03125 0.6328125
vt 0.0 0.6328125
vt 0.0625 1.0
vt 0.1015625 1.0
vt 0.1015625 0.9140625
vt 0.0625 0.9140625
vt 0.40625 0.4609375
vt 0.375 0.4609375
vt 0.375 0.5
vt 0.40625 0.5
vt 0.4375 0.5
vt 0.40625 0.5
vt 0.40625 0.4609375
vt 0.4375 0.4609375
vt 0.28125 0.90625
vt 0.3125 0.90625
vt 0.3125 0.8203125
vt 0.28125 0.8203125
vt 0.125 1.0
vt 0.1640625 1.0
vt 0.1640625 0.9140625
vt 0.125 0.9140625
vt 0.28125 0.8125
vt 0.3125 0.8125
vt 0.3125 0.7265625
vt 0.28125 0.7265625
vt 0.125 0.90625
vt 0.1640625 0.90625
vt 0.1640625 0.8203125
vt 0.125 0.8203125
vt 0.53125 0.4921875
vt 0.5 0.4921875
vt 0.5 0.53125
vt 0.53125 0.53125
vt 0.09375 0.46875
vt 0.0625 0.46875
vt 0.0625 0.4296875
vt 0.09375 0.4296875
vt 0.1875 0.78125
vt 0.21875 0.78125
vt 0.21875 0.6875
vt 0.1875 0.6875
vt 0.21875 0.78125
vt 0.25 0.78125
vt 0.25 0.6875
vt 0.21875 0.6875
vt 0.25 1.0
vt 0.28125 1.0
vt 0.28125 0.90625
vt 0.25 0.90625
vt 0.0625 0.75
vt 0.09375 0.75
vt 0.09375 0.65625
vt 0.0625 0.65625
vt 0.5625 0.8125
vt 0.53125 0.8125
vt 0.53125 0.84375
vt 0.5625 0.84375
vt 0.21875 0.46875
vt 0.1875 0.46875
vt 0.1875 0.4375
vt 0.21875 0.4375
vt 0.28125 1.0
vt 0.3125 1.0
vt 0.3125 0.9140625
vt 0.28125 0.9140625
vt 0.0 0.90625
vt 0.0390625 0.90625
vt 0.0390625 0.8203125
vt 0.0 0.8203125
vt 0.03125 0.71875
vt 0.0625 0.71875
vt 0.0625 0.6328125
vt 0.03125 0.6328125
vt 0.0625 0.90625
vt 0.1015625 0.90625
vt 0.1015625 0.8203125
vt 0.0625 0.8203125
vt 0.46875 0.4609375
vt 0.4375 0.4609375
vt 0.4375 0.5
vt 0.46875 0.5
vt 0.5 0.5
vt 0.46875 0.5
vt 0.46875 0.4609375
vt 0.5 0.4609375
vt 0.25 0.71875
vt 0.28125 0.71875
vt 0.28125 0.6328125
vt 0.25 0.6328125
vt 0.0 0.8125
vt 0.0390625 0.8125
vt 0.0390625 0.7265625
vt 0.0 0.7265625
vt 0.28125 0.71875
vt 0.3125 0.71875
vt 0.3125 0.6328125
vt 0.28125 0.6328125
vt 0.1875 1.0
vt 0.2265625 1.0
vt 0.2265625 0.9140625
vt 0.1875 0.9140625
vt 0.125 0.4296875
vt 0.09375 0.4296875
vt 0.09375 0.46875
vt 0.125 0.46875
vt 0.5625 0.90625
vt 0.53125 0.90625
vt 0.53125 0.8671875
vt 0.5625 0.8671875
vt 0.59375 0.90625
vt 0.6171875 0.90625
vt 0.6171875 0.8828125
vt 0.59375 0.8828125
vt 0.125 0.4375
vt 0.15625 0.4375
vt 0.15625 0.4140625
vt 0.125 0.4140625
vt 0.125 0.40625
vt 0.1484375 0.40625
vt 0.1484375 0.3828125
vt 0.125 0.3828125
vt 0.5625 0.875
vt 0.59375 0.875
vt 0.59375 0.8515625
vt 0.5625 0.8515625
vt 0.1796875 0.40625
vt 0.15625 0.40625
vt 0.15625 0.4375
vt 0.1796875 0.4375
vt 0.5859375 0.84375
vt 0.5625 0.84375
vt 0.5625 0.8125
vt 0.5859375 0.8125
vt 0.46875 0.90625
vt 0.53125 0.90625
vt 0.53125 0.875
vt 0.46875 0.875
vt 0.125 0.46875
vt 0.15625 0.46875
vt 0.15625 0.4375
vt 0.125 0.4375
vt 0.46875 0.875
vt 0.53125 0.875
vt 0.53125 0.84375
vt 0.46875 0.84375
vt 0.15625 0.46875
vt 0.1875 0.46875
vt 0.1875 0.4375
vt 0.15625 0.4375
vt 0.53125 0.8125
vt 0.46875 0.8125
vt 0.46875 0.84375
vt 0.53125 0.84375
vt 0.25 0.53125
vt 0.1875 0.53125
vt 0.1875 0.5
vt 0.25 0.5
vt 0.46875 0.71875
vt 0.515625 0.71875
vt 0.515625 0.6875
vt 0.46875 0.6875
vt 0.53125 0.78125
vt 0.5625 0.78125
vt 0.5625 0.75
vt 0.53125 0.75
vt 0.3125 0.53125
vt 0.359375 0.53125
vt 0.359375 0.5
vt 0.3125 0.5
vt 0.25 0.46875
vt 0.28125 0.46875
vt 0.28125 0.4375
vt 0.25 0.4375
vt 0.515625 0.65625
vt 0.46875 0.65625
vt 0.46875 0.6875
vt 0.515625 0.6875
vt 0.515625 0.65625
vt 0.46875 0.65625
vt 0.46875 0.625
vt 0.515625 0.625
vt 0.1875 0.4375
vt 0.234375 0.4375
vt 0.234375 0.421875
vt 0.1875 0.421875
vt 0.59375 0.71875
vt 0.625 0.71875
vt 0.625 0.703125
vt 0.59375 0.703125
vt 0.5625 0.8125
vt 0.609375 0.8125
vt 0.609375 0.796875
vt 0.5625 0.796875
vt 0.3125 0.40625
vt 0.34375 0.40625
vt 0.34375 0.390625
vt 0.3125 0.390625
vt 0.421875 0.5
vt 0.375 0.5
vt 0.375 0.53125
vt 0.421875 0.53125
vt 0.515625 0.625
vt 0.46875 0.625
vt 0.46875 0.59375
vt 0.515625 0.59375
vt 0.5625 0.78125
vt 0.609375 0.78125
vt 0.609375 0.765625
vt 0.5625 0.765625
vt 0.34375 0.40625
vt 0.375 0.40625
vt 0.375 0.390625
vt 0.34375 0.390625
vt 0.25 0.4375
vt 0.296875 0.4375
vt 0.296875 0.421875
vt 0.25 0.421875
vt 0.59375 0.65625
vt 0.625 0.65625
vt 0.625 0.640625
vt 0.59375 0.640625
vt 0.515625 0.5625
vt 0.46875 0.5625
vt 0.46875 0.59375
vt 0.515625 0.59375
vt 0.484375 0.53125
vt 0.4375 0.53125
vt 0.4375 0.5
vt 0.484375 0.5
vt 0.59375 0.5
vt 0.6171875 0.5
vt 0.6171875 0.484375
vt 0.59375 0.484375
vt 0.375 0.40625
vt 0.40625 0.40625
vt 0.40625 0.390625
vt 0.375 0.390625
vt 0.53125 0.40625
vt 0.5546875 0.40625
vt 0.5546875 0.390625
vt 0.53125 0.390625
vt 0.40625 0.40625
vt 0.4375 0.40625
vt 0.4375 0.390625
vt 0.40625 0.390625
vt 0.5859375 0.71875
vt 0.5625 0.71875
vt 0.5625 0.75
vt 0.5859375 0.75
vt 0.5859375 0.71875
vt 0.5625 0.71875
vt 0.5625 0.6875
vt 0.5859375 0.6875
vt 0.09375 0.375
vt 0.1015625 0.375
vt 0.1015625 0.3671875
vt 0.09375 0.3671875
vt 0.59375 0.4375
vt 0.625 0.4375
vt 0.625 0.4296875
vt 0.59375 0.4296875
vt 0.625 0.90625
vt 0.6328125 0.90625
vt 0.6328125 0.8984375
vt 0.625 0.8984375
vt 0.59375 0.40625
vt 0.625 0.40625
vt 0.625 0.3984375
vt 0.59375 0.3984375
vt 0.0078125 0.34375
vt 0.0 0.34375
vt 0.0 0.375
vt 0.0078125 0.375
vt 0.6328125 1.0
vt 0.625 1.0
vt 0.625 0.96875
vt 0.6328125 0.96875
vt 0.09375 0.75
vt 0.125 0.75
vt 0.125 0.65625
vt 0.09375 0.65625
vt 0.25 0.90625
vt 0.28125 0.90625
vt 0.28125 0.8125
vt 0.25 0.8125
vt 0.125 0.75
vt 0.15625 0.75
vt 0.15625 0.65625
vt 0.125 0.65625
vt 0.15625 0.75
vt 0.1875 0.75
vt 0.1875 0.65625
vt 0.15625 0.65625
vt 0.5625 0.78125
vt 0.53125 0.78125
vt 0.53125 0.8125
vt 0.5625 0.8125
vt 0.25 0.46875
vt 0.21875 0.46875
vt 0.21875 0.4375
vt 0.25 0.4375
vt 0.46875 0.8125
vt 0.53125 0.8125
vt 0.53125 0.78125
vt 0.46875 0.78125
vt 0.53125 0.75
vt 0.5625 0.75
vt 0.5625 0.71875
vt 0.53125 0.71875
vt 0.46875 0.78125
vt 0.53125 0.78125
vt 0.53125 0.75
vt 0.46875 0.75
vt 0.28125 0.46875
vt 0.3125 0.46875
vt 0.3125 0.4375
vt 0.28125 0.4375
vt 0.3125 0.5
vt 0.25 0.5
vt 0.25 0.53125
vt 0.3125 0.53125
vt 0.53125 0.75
vt 0.46875 0.75
vt 0.46875 0.71875
vt 0.53125 0.71875
vt 0.46875 0.5625
vt 0.515625 0.5625
vt 0.515625 0.53125
vt 0.46875 0.53125
vt 0.53125 0.71875
vt 0.5625 0.71875
vt 0.5625 0.6875
vt 0.53125 0.6875
vt 0.5 1.0
vt 0.546875 1.0
vt 0.546875 0.96875
vt 0.5 0.96875
vt 0.3125 0.46875
vt 0.34375 0.46875
vt 0.34375 0.4375
vt 0.3125 0.4375
vt 0.546875 0.9375
vt 0.5 0.9375
vt 0.5 0.96875
vt 0.546875 0.96875
vt 0.109375 0.5
vt 0.0625 0.5
vt 0.0625 0.46875
vt 0.109375 0.46875
vt 0.3125 0.4375
vt 0.359375 0.4375
vt 0.359375 0.421875
vt 0.3125 0.421875
vt 0.59375 0.59375
vt 0.625 0.59375
vt 0.625 0.578125
vt 0.59375 0.578125
vt 0.5625 0.6875
vt 0.609375 0.6875
vt 0.609375 0.671875
vt 0.5625 0.671875
vt 0.4375 0.40625
vt 0.46875 0.40625
vt 0.46875 0.390625
vt 0.4375 0.390625
vt 0.546875 0.90625
vt 0.5 0.90625
vt 0.5 0.9375
vt 0.546875 0.9375
vt 0.234375 0.5
vt 0.1875 0.5
vt 0.1875 0.46875
vt 0.234375 0.46875
vt 0.59375 0.46875
vt 0.6171875 0.46875
vt 0.6171875 0.453125
vt 0.59375 0.453125
vt 0.59375 0.5625
vt 0.625 0.5625
vt 0.625 0.546875
vt 0.59375 0.546875
vt 0.5625 0.40625
vt 0.5859375 0.40625
vt 0.5859375 0.390625
vt 0.5625 0.390625
vt 0.46875 0.40625
vt 0.5 0.40625
vt 0.5 0.390625
vt 0.46875 0.390625
vt 0.5859375 0.625
vt 0.5625 0.625
vt 0.5625 0.65625
vt 0.5859375 0.65625
vt 0.3984375 0.4375
vt 0.375 0.4375
vt 0.375 0.40625
vt 0.3984375 0.40625
vt 0.5625 0.625
vt 0.609375 0.625
vt 0.609375 0.609375
vt 0.5625 0.609375
vt 0.59375 0.53125
vt 0.625 0.53125
vt 0.625 0.515625
vt 0.59375 0.515625
vt 0.40625 0.4375
vt 0.453125 0.4375
vt 0.453125 0.421875
vt 0.40625 0.421875
vt 0.5 0.40625
vt 0.53125 0.40625
vt 0.53125 0.390625
vt 0.5 0.390625
vt 0.296875 0.46875
vt 0.25 0.46875
vt 0.25 0.5
vt 0.296875 0.5
vt 0.359375 0.5
vt 0.3125 0.5
vt 0.3125 0.46875
vt 0.359375 0.46875
vt 0.125 0.375
vt 0.1328125 0.375
vt 0.1328125 0.3671875
vt 0.125 0.3671875
vt 0.03125 0.375
vt 0.0625 0.375
vt 0.0625 0.3671875
vt 0.03125 0.3671875
vt 0.625 0.875
vt 0.6328125 0.875
vt 0.6328125 0.8671875
vt 0.625 0.8671875
vt 0.625 0.96875
vt 0.65625 0.96875
vt 0.65625 0.9609375
vt 0.625 0.9609375
vt 0.0703125 0.34375
vt 0.0625 0.34375
vt 0.0625 0.375
vt 0.0703125 0.375
vt 0.6328125 0.9375
vt 0.625 0.9375
vt 0.625 0.90625
vt 0.6328125 0.90625
vt 0.125 0.65625
vt 0.15625 0.65625
vt 0.15625 0.578125
vt 0.125 0.578125
vt 0.15625 0.65625
vt 0.1875 0.65625
vt 0.1875 0.578125
vt 0.15625 0.578125
vt 0.0 0.625
vt 0.03125 0.625
vt 0.03125 0.546875
vt 0.0 0.546875
vt 0.375 1.0
vt 0.40625 1.0
vt 0.40625 0.921875
vt 0.375 0.921875
vt 0.5625 0.65625
vt 0.53125 0.65625
vt 0.53125 0.6875
vt 0.5625 0.6875
vt 0.375 0.46875
vt 0.34375 0.46875
vt 0.34375 0.4375
vt 0.375 0.4375
vt 0.59375 0.875
vt 0.6171875 0.875
vt 0.6171875 0.8515625
vt 0.59375 0.8515625
vt 0.5625 0.59375
vt 0.59375 0.59375
vt 0.59375 0.5703125
vt 0.5625 0.5703125
vt 0.15625 0.40625
vt 0.1796875 0.40625
vt 0.1796875 0.3828125
vt 0.15625 0.3828125
vt 0.5625 0.5625
vt 0.59375 0.5625
vt 0.59375 0.5390625
vt 0.5625 0.5390625
vt 0.4921875 0.40625
vt 0.46875 0.40625
vt 0.46875 0.4375
vt 0.4921875 0.4375
vt 0.5859375 0.53125
vt 0.5625 0.53125
vt 0.5625 0.5
vt 0.5859375 0.5
vt 0.59375 0.84375
vt 0.6171875 0.84375
vt 0.6171875 0.8203125
vt 0.59375 0.8203125
vt 0.5 0.4375
vt 0.53125 0.4375
vt 0.53125 0.4140625
vt 0.5 0.4140625
vt 0.1875 0.40625
vt 0.2109375 0.40625
vt 0.2109375 0.3828125
vt 0.1875 0.3828125
vt 0.5625 0.5
vt 0.59375 0.5
vt 0.59375 0.4765625
vt 0.5625 0.4765625
vt 0.5546875 0.40625
vt 0.53125 0.40625
vt 0.53125 0.4375
vt 0.5546875 0.4375
vt 0.5859375 0.46875
vt 0.5625 0.46875
vt 0.5625 0.4375
vt 0.5859375 0.4375
vt 0.3125 0.625
vt 0.34375 0.625
vt 0.34375 0.546875
vt 0.3125 0.546875
vt 0.34375 0.625
vt 0.375 0.625
vt 0.375 0.546875
vt 0.34375 0.546875
vt 0.375 0.625
vt 0.40625 0.625
vt 0.40625 0.546875
vt 0.375 0.546875
vt 0.40625 1.0
vt 0.4375 1.0
vt 0.4375 0.921875
vt 0.40625 0.921875
vt 0.5625 0.5
vt 0.53125 0.5
vt 0.53125 0.53125
vt 0.5625 0.53125
vt 0.53125 0.46875
vt 0.5 0.46875
vt 0.5 0.4375
vt 0.53125 0.4375
vt 0.21875 0.625
vt 0.25 0.625
vt 0.25 0.546875
vt 0.21875 0.546875
vt 0.25 0.625
vt 0.28125 0.625
vt 0.28125 0.546875
vt 0.25 0.546875
vt 0.28125 0.625
vt 0.3125 0.625
vt 0.3125 0.546875
vt 0.28125 0.546875
vt 0.375 0.71875
vt 0.40625 0.71875
vt 0.40625 0.640625
vt 0.375 0.640625
vt 0.5625 0.5625
vt 0.53125 0.5625
vt 0.53125 0.59375
vt 0.5625 0.59375
vt 0.5625 0.5625
vt 0.53125 0.5625
vt 0.53125 0.53125
vt 0.5625 0.53125
vt 0.03125 0.625
vt 0.0625 0.625
vt 0.0625 0.546875
vt 0.03125 0.546875
vt 0.375 0.90625
vt 0.40625 0.90625
vt 0.40625 0.828125
vt 0.375 0.828125
vt 0.1875 0.625
vt 0.21875 0.625
vt 0.21875 0.546875
vt 0.1875 0.546875
vt 0.375 0.8125
vt 0.40625 0.8125
vt 0.40625 0.734375
vt 0.375 0.734375
vt 0.5625 0.625
vt 0.53125 0.625
vt 0.53125 0.65625
vt 0.5625 0.65625
vt 0.5625 0.625
vt 0.53125 0.625
vt 0.53125 0.59375
vt 0.5625 0.59375
vt 0.4375 0.625
vt 0.46875 0.625
vt 0.46875 0.546875
vt 0.4375 0.546875
vt 0.0 0.53125
vt 0.03125 0.53125
vt 0.03125 0.453125
vt 0.0 0.453125
vt 0.46875 1.0
vt 0.5 1.0
vt 0.5 0.921875
vt 0.46875 0.921875
vt 0.03125 0.53125
vt 0.0625 0.53125
vt 0.0625 0.453125
vt 0.03125 0.453125
vt 0.59375 0.90625
vt 0.5625 0.90625
vt 0.5625 0.9375
vt 0.59375 0.9375
vt 0.59375 0.90625
vt 0.5625 0.90625
vt 0.5625 0.875
vt 0.59375 0.875
vt 0.125 0.5625
vt 0.15625 0.5625
vt 0.15625 0.484375
vt 0.125 0.484375
vt 0.15625 0.5625
vt 0.1875 0.5625
vt 0.1875 0.484375
vt 0.15625 0.484375
vt 0.4375 0.8125
vt 0.46875 0.8125
vt 0.46875 0.734375
vt 0.4375 0.734375
vt 0.4375 0.71875
vt 0.46875 0.71875
vt 0.46875 0.640625
vt 0.4375 0.640625
vt 0.0625 0.40625
vt 0.03125 0.40625
vt 0.03125 0.4375
vt 0.0625 0.4375
vt 0.59375 0.96875
vt 0.5625 0.96875
vt 0.5625 0.9375
vt 0.59375 0.9375
vt 0.40625 0.71875
vt 0.4375 0.71875
vt 0.4375 0.640625
vt 0.40625 0.640625
vt 0.40625 0.625
vt 0.4375 0.625
vt 0.4375 0.546875
vt 0.40625 0.546875
vt 0.4375 1.0
vt 0.46875 1.0
vt 0.46875 0.921875
vt 0.4375 0.921875
vt 0.4375 0.90625
vt 0.46875 0.90625
vt 0.46875 0.828125
vt 0.4375 0.828125
vt 0.03125 0.40625
vt 0.0 0.40625
vt 0.0 0.4375
vt 0.03125 0.4375
vt 0.59375 1.0
vt 0.5625 1.0
vt 0.5625 0.96875
vt 0.59375 0.96875
vt 0.0625 0.59375
vt 0.09375 0.59375
vt 0.09375 0.515625
vt 0.0625 0.515625
vt 0.09375 0.59375
vt 0.125 0.59375
vt 0.125 0.515625
vt 0.09375 0.515625
vt 0.40625 0.90625
vt 0.4375 0.90625
vt 0.4375 0.828125
vt 0.40625 0.828125
vt 0.40625 0.8125
vt 0.4375 0.8125
vt 0.4375 0.734375
vt 0.40625 0.734375
vt 0.5625 0.46875
vt 0.53125 0.46875
vt 0.53125 0.5
vt 0.5625 0.5
vt 0.5625 0.46875
vt 0.53125 0.46875
vt 0.53125 0.4375
vt 0.5625 0.4375
vt 0.0 1.0
vt 0.0625 1.0
vt 0.0625 0.625
vt 0.0 0.625
vt 0.0625 1.0
vt 0.125 1.0
vt 0.125 0.625
vt 0.0625 0.625
vt 0.125 1.0
vt 0.1875 1.0
vt 0.1875 0.625
vt 0.125 0.625
vt 0.1875 1.0
vt 0.25 1.0
vt 0.25 0.625
vt 0.1875 0.625
vt 0.3125 0.9375
vt 0.25 0.9375
vt 0.25 1.0
vt 0.3125 1.0
vt 0.3125 0.9375
vt 0.25 0.9375
vt 0.25 0.875
vt 0.3125 0.875
vt 0.21875 0.40625
vt 0.2421875 0.40625
vt 0.2421875 0.3828125
vt 0.21875 0.3828125
vt 0.5625 0.4375
vt 0.59375 0.4375
vt 0.59375 0.4140625
vt 0.5625 0.4140625
vt 0.25 0.40625
vt 0.2734375 0.40625
vt 0.2734375 0.3828125
vt 0.25 0.3828125
vt 0.0 0.40625
vt 0.03125 0.40625
vt 0.03125 0.3828125
vt 0.0 0.3828125
vt 0.6171875 0.96875
vt 0.59375 0.96875
vt 0.59375 1.0
vt 0.6171875 1.0
vt 0.0546875 0.40625
vt 0.03125 0.40625
vt 0.03125 0.375
vt 0.0546875 0.375
vt 0.59375 0.75
vt 0.6171875 0.75
vt 0.6171875 0.7265625
vt 0.59375 0.7265625
vt 0.59375 0.96875
vt 0.625 0.96875
vt 0.625 0.9453125
vt 0.59375 0.9453125
vt 0.28125 0.40625
vt 0.3046875 0.40625
vt 0.3046875 0.3828125
vt 0.28125 0.3828125
vt 0.0625 0.40625
vt 0.09375 0.40625
vt 0.09375 0.3828125
vt 0.0625 0.3828125
vt 0.6171875 0.90625
vt 0.59375 0.90625
vt 0.59375 0.9375
vt 0.6171875 0.9375
vt 0.1171875 0.40625
vt 0.09375 0.40625
vt 0.09375 0.375
vt 0.1171875 0.375
vt 0.0625 0.8125
vt 0.1171875 0.8125
vt 0.1171875 0.7578125
vt 0.0625 0.7578125
vt 0.3125 1.0
vt 0.359375 1.0
vt 0.359375 0.9453125
vt 0.3125 0.9453125
vt 0.1875 0.90625
vt 0.2421875 0.90625
vt 0.2421875 0.8515625
vt 0.1875 0.8515625
vt 0.3125 0.9375
vt 0.359375 0.9375
vt 0.359375 0.8828125
vt 0.3125 0.8828125
vt 0.3671875 0.828125
vt 0.3125 0.828125
vt 0.3125 0.875
vt 0.3671875 0.875
vt 0.2421875 0.6875
vt 0.1875 0.6875
vt 0.1875 0.640625
vt 0.2421875 0.640625
vt 0.125 0.8125
vt 0.1796875 0.8125
vt 0.1796875 0.7578125
vt 0.125 0.7578125
vt 0.3125 0.8125
vt 0.359375 0.8125
vt 0.359375 0.7578125
vt 0.3125 0.7578125
vt 0.1875 0.84375
vt 0.2421875 0.84375
vt 0.2421875 0.7890625
vt 0.1875 0.7890625
vt 0.3125 0.75
vt 0.359375 0.75
vt 0.359375 0.6953125
vt 0.3125 0.6953125
vt 0.3671875 0.640625
vt 0.3125 0.640625
vt 0.3125 0.6875
vt 0.3671875 0.6875
vt 0.1171875 0.65625
vt 0.0625 0.65625
vt 0.0625 0.609375
vt 0.1171875 0.609375
vt 0.0 0.6875
vt 0.1953125 0.6875
vt 0.1953125 0.65625
vt 0.0 0.65625
vt 0.25 0.53125
vt 0.296875 0.53125
vt 0.296875 0.5
vt 0.25 0.5
vt 0.21875 0.6875
vt 0.4140625 0.6875
vt 0.4140625 0.65625
vt 0.21875 0.65625
vt 0.15625 0.5
vt 0.203125 0.5
vt 0.203125 0.46875
vt 0.15625 0.46875
vt 0.4140625 0.953125
vt 0.21875 0.953125
vt 0.21875 1.0
vt 0.4140625 1.0
vt 0.4140625 0.9375
vt 0.21875 0.9375
vt 0.21875 0.890625
vt 0.4140625 0.890625
vt 0.0 1.0
vt 0.234375 1.0
vt 0.234375 0.9453125
vt 0.0 0.9453125
vt 0.3125 0.59375
vt 0.328125 0.59375
vt 0.328125 0.5390625
vt 0.3125 0.5390625
vt 0.0 0.9375
vt 0.234375 0.9375
vt 0.234375 0.8828125
vt 0.0 0.8828125
vt 0.34375 0.59375
vt 0.359375 0.59375
vt 0.359375 0.5390625
vt 0.34375 0.5390625
vt 0.421875 0.734375
vt 0.1875 0.734375
vt 0.1875 0.75
vt 0.421875 0.75
vt 0.484375 0.8125
vt 0.25 0.8125
vt 0.25 0.796875
vt 0.484375 0.796875
vt 0.375 0.625
vt 0.3984375 0.625
vt 0.3984375 0.53125
vt 0.375 0.53125
vt 0.09375 0.59375
vt 0.109375 0.59375
vt 0.109375 0.5
vt 0.09375 0.5
vt 0.0 0.59375
vt 0.0234375 0.59375
vt 0.0234375 0.5
vt 0.0 0.5
vt 0.125 0.59375
vt 0.140625 0.59375
vt 0.140625 0.5
vt 0.125 0.5
vt 0.3984375 0.515625
vt 0.375 0.515625
vt 0.375 0.53125
vt 0.3984375 0.53125
vt 0.0859375 0.5
vt 0.0625 0.5
vt 0.0625 0.484375
vt 0.0859375 0.484375
vt 0.0 0.75
vt 0.21875 0.75
vt 0.21875 0.71875
vt 0.0 0.71875
vt 0.21875 0.5
vt 0.265625 0.5
vt 0.265625 0.46875
vt 0.21875 0.46875
vt 0.21875 0.75
vt 0.4375 0.75
vt 0.4375 0.71875
vt 0.21875 0.71875
vt 0.28125 0.5
vt 0.328125 0.5
vt 0.328125 0.46875
vt 0.28125 0.46875
vt 0.21875 0.953125
vt 0.0 0.953125
vt 0.0 1.0
vt 0.21875 1.0
vt 0.21875 0.9375
vt 0.0 0.9375
vt 0.0 0.890625
vt 0.21875 0.890625
vt 0.0625 0.53125
vt 0.1328125 0.53125
vt 0.1328125 0.5078125
vt 0.0625 0.5078125
vt 0.125 0.46875
vt 0.171875 0.46875
vt 0.171875 0.4453125
vt 0.125 0.4453125
vt 0.15625 0.53125
vt 0.2265625 0.53125
vt 0.2265625 0.5078125
vt 0.15625 0.5078125
vt 0.53125 0.875
vt 0.578125 0.875
vt 0.578125 0.8515625
vt 0.53125 0.8515625
vt 0.5078125 0.859375
vt 0.4375 0.859375
vt 0.4375 0.90625
vt 0.5078125 0.90625
vt 0.5078125 0.84375
vt 0.4375 0.84375
vt 0.4375 0.796875
vt 0.5078125 0.796875
vt 0.3125 0.4375
vt 0.328125 0.4375
vt 0.328125 0.421875
vt 0.3125 0.421875
vt 0.375 0.46875
vt 0.421875 0.46875
vt 0.421875 0.453125
vt 0.375 0.453125
vt 0.5625 0.5
vt 0.578125 0.5
vt 0.578125 0.484375
vt 0.5625 0.484375
vt 0.4375 0.46875
vt 0.484375 0.46875
vt 0.484375 0.453125
vt 0.4375 0.453125
vt 0.515625 0.421875
vt 0.5 0.421875
vt 0.5 0.46875
vt 0.515625 0.46875
vt 0.546875 0.5
vt 0.53125 0.5
vt 0.53125 0.453125
vt 0.546875 0.453125
vt 0.5625 0.59375
vt 0.6015625 0.59375
vt 0.6015625 0.5859375
vt 0.5625 0.5859375
vt 0.5625 0.71875
vt 0.609375 0.71875
vt 0.609375 0.7109375
vt 0.5625 0.7109375
vt 0.4375 0.4375
vt 0.4765625 0.4375
vt 0.4765625 0.4296875
vt 0.4375 0.4296875
vt 0.5625 0.65625
vt 0.609375 0.65625
vt 0.609375 0.6484375
vt 0.5625 0.6484375
vt 0.3515625 0.515625
vt 0.3125 0.515625
vt 0.3125 0.5625
vt 0.3515625 0.5625
vt 0.4140625 0.5625
vt 0.375 0.5625
vt 0.375 0.515625
vt 0.4140625 0.515625
vt 0.0 0.75
vt 0.1875 0.75
vt 0.1875 0.703125
vt 0.0 0.703125
vt 0.4375 0.75
vt 0.453125 0.75
vt 0.453125 0.703125
vt 0.4375 0.703125
vt 0.25 1.0
vt 0.4375 1.0
vt 0.4375 0.953125
vt 0.25 0.953125
vt 0.28125 0.5625
vt 0.296875 0.5625
vt 0.296875 0.515625
vt 0.28125 0.515625
vt 0.1875 0.609375
vt 0.0 0.609375
vt 0.0 0.625
vt 0.1875 0.625
vt 0.375 0.625
vt 0.1875 0.625
vt 0.1875 0.609375
vt 0.375 0.609375
vt 0.3125 0.59375
vt 0.46875 0.59375
vt 0.46875 0.5625
vt 0.3125 0.5625
vt 0.5 0.53125
vt 0.5390625 0.53125
vt 0.5390625 0.5
vt 0.5 0.5
vt 0.4375 1.0
vt 0.59375 1.0
vt 0.59375 0.96875
vt 0.4375 0.96875
vt 0.0 0.46875
vt 0.0390625 0.46875
vt 0.0390625 0.4375
vt 0.0 0.4375
vt 0.15625 0.6171875
vt 0.0 0.6171875
vt 0.0 0.65625
vt 0.15625 0.65625
vt 0.3125 0.65625
vt 0.15625 0.65625
vt 0.15625 0.6171875
vt 0.3125 0.6171875
vt 0.1875 0.4375
vt 0.2109375 0.4375
vt 0.2109375 0.4140625
vt 0.1875 0.4140625
vt 0.53125 0.8125
vt 0.5703125 0.8125
vt 0.5703125 0.7890625
vt 0.53125 0.7890625
vt 0.21875 0.4375
vt 0.2421875 0.4375
vt 0.2421875 0.4140625
vt 0.21875 0.4140625
vt 0.53125 0.78125
vt 0.5703125 0.78125
vt 0.5703125 0.7578125
vt 0.53125 0.7578125
vt 0.2734375 0.4296875
vt 0.25 0.4296875
vt 0.25 0.46875
vt 0.2734375 0.46875
vt 0.5546875 0.75
vt 0.53125 0.75
vt 0.53125 0.7109375
vt 0.5546875 0.7109375
vt 0.46875 0.5625
vt 0.5078125 0.5625
vt 0.5078125 0.546875
vt 0.46875 0.546875
vt 0.5 0.875
vt 0.515625 0.875
vt 0.515625 0.859375
vt 0.5 0.859375
vt 0.46875 0.53125
vt 0.5078125 0.53125
vt 0.5078125 0.515625
vt 0.46875 0.515625
vt 0.15625 0.5
vt 0.171875 0.5
vt 0.171875 0.484375
vt 0.15625 0.484375
vt 0.0390625 0.484375
vt 0.0 0.484375
vt 0.0 0.5
vt 0.0390625 0.5
vt 0.5390625 0.96875
vt 0.5 0.96875
vt 0.5 0.953125
vt 0.5390625 0.953125
vt 0.0 0.6875
vt 0.0703125 0.6875
vt 0.0703125 0.640625
vt 0.0 0.640625
vt 0.21875 0.5625
vt 0.234375 0.5625
vt 0.234375 0.515625
vt 0.21875 0.515625
vt 0.09375 0.6875
vt 0.1640625 0.6875
vt 0.1640625 0.640625
vt 0.09375 0.640625
vt 0.25 0.5625
vt 0.265625 0.5625
vt 0.265625 0.515625
vt 0.25 0.515625
vt 0.2890625 0.578125
vt 0.21875 0.578125
vt 0.21875 0.59375
vt 0.2890625 0.59375
vt 0.4765625 0.625
vt 0.40625 0.625
vt 0.40625 0.609375
vt 0.4765625 0.609375
vt 0.0 1.0
vt 0.3125 1.0
vt 0.3125 0.6875
vt 0.0 0.6875
vt 0.375 1.0
vt 0.625 1.0
vt 0.625 0.6875
vt 0.375 0.6875
vt 0.0 0.625
vt 0.3125 0.625
vt 0.3125 0.3125
vt 0.0 0.3125
vt 0.375 0.625
vt 0.625 0.625
vt 0.625 0.3125
vt 0.375 0.3125
vt 0.9375 0.75
vt 0.625 0.75
vt 0.625 1.0
vt 0.9375 1.0
vt 0.9375 0.75
vt 0.625 0.75
vt 0.625 0.5
vt 0.9375 0.5
vt 0.5 0.625
vt 0.625 0.625
vt 0.625 0.5
vt 0.5 0.5
vt 0.0 1.0
vt 0.25 1.0
vt 0.25 0.875
vt 0.0 0.875
vt 0.625 1.0
vt 0.75 1.0
vt 0.75 0.875
vt 0.625 0.875
vt 0.0 0.875
vt 0.25 0.875
vt 0.25 0.75
vt 0.0 0.75
vt 0.125 0.5
vt 0.0 0.5
vt 0.0 0.75
vt 0.125 0.75
vt 0.375 1.0
vt 0.25 1.0
vt 0.25 0.75
vt 0.375 0.75
vt 0.0 0.25
vt 0.125 0.25
vt 0.125 0.125
vt 0.0 0.125
vt 0.5 0.75
vt 0.75 0.75
vt 0.75 0.625
vt 0.5 0.625
vt 0.75 1.0
vt 0.875 1.0
vt 0.875 0.875
vt 0.75 0.875
vt 0.375 0.5
vt 0.625 0.5
vt 0.625 0.375
vt 0.375 0.375
vt 0.25 0.125
vt 0.125 0.125
vt 0.125 0.375
vt 0.25 0.375
vt 0.5 0.375
vt 0.375 0.375
vt 0.375 0.125
vt 0.5 0.125
vt 0.625 0.5
vt 0.75 0.5
vt 0.75 0.375
vt 0.625 0.375
vt 0.25 0.625
vt 0.5 0.625
vt 0.5 0.5
vt 0.25 0.5
vt 0.625 0.375
vt 0.75 0.375
vt 0.75 0.25
vt 0.625 0.25
vt 0.5 0.875
vt 0.75 0.875
vt 0.75 0.75
vt 0.5 0.75
vt 0.125 0.25
vt 0.0 0.25
vt 0.0 0.5
vt 0.125 0.5
vt 0.375 0.5
vt 0.25 0.5
vt 0.25 0.25
vt 0.375 0.25
vt 0.625 0.625
vt 0.75 0.625
vt 0.75 0.5
vt 0.625 0.5
vt 0.125 0.75
vt 0.375 0.75
vt 0.375 0.625
vt 0.125 0.625
vt 0.5 0.375
vt 0.625 0.375
vt 0.625 0.25
vt 0.5 0.25
vt 0.375 1.0
vt 0.625 1.0
vt 0.625 0.875
vt 0.375 0.875
vt 0.25 0.375
vt 0.125 0.375
vt 0.125 0.625
vt 0.25 0.625
vt 0.5 0.875
vt 0.375 0.875
vt 0.375 0.625
vt 0.5 0.625
vt 0.0 0.875
vt 0.234375 0.875
vt 0.234375 0.8203125
vt 0.0 0.8203125
vt 0.4375 0.96875
vt 0.453125 0.96875
vt 0.453125 0.9140625
vt 0.4375 0.9140625
vt 0.0 0.8125
vt 0.234375 0.8125
vt 0.234375 0.7578125
vt 0.0 0.7578125
vt 0.4375 0.90625
vt 0.453125 0.90625
vt 0.453125 0.8515625
vt 0.4375 0.8515625
vt 0.484375 0.765625
vt 0.25 0.765625
vt 0.25 0.78125
vt 0.484375 0.78125
vt 0.421875 0.71875
vt 0.1875 0.71875
vt 0.1875 0.703125
vt 0.421875 0.703125
vt 0.03125 0.59375
vt 0.0546875 0.59375
vt 0.0546875 0.5
vt 0.03125 0.5
vt 0.15625 0.59375
vt 0.171875 0.59375
vt 0.171875 0.5
vt 0.15625 0.5
vt 0.0625 0.59375
vt 0.0859375 0.59375
vt 0.0859375 0.5
vt 0.0625 0.5
vt 0.1875 0.59375
vt 0.203125 0.59375
vt 0.203125 0.5
vt 0.1875 0.5
vt 0.5234375 0.921875
vt 0.5 0.921875
vt 0.5 0.9375
vt 0.5234375 0.9375
vt 0.1171875 0.5
vt 0.09375 0.5
vt 0.09375 0.484375
vt 0.1171875 0.484375
vt 0.3125 0.65625
vt 0.5078125 0.65625
vt 0.5078125 0.625
vt 0.3125 0.625
vt 0.34375 0.5
vt 0.390625 0.5
vt 0.390625 0.46875
vt 0.34375 0.46875
vt 0.3125 0.625
vt 0.5078125 0.625
vt 0.5078125 0.59375
vt 0.3125 0.59375
vt 0.40625 0.5
vt 0.453125 0.5
vt 0.453125 0.46875
vt 0.40625 0.46875
vt 0.4140625 0.828125
vt 0.21875 0.828125
vt 0.21875 0.875
vt 0.4140625 0.875
vt 0.4140625 0.8125
vt 0.21875 0.8125
vt 0.21875 0.765625
vt 0.4140625 0.765625
vt 0.53125 0.4375
vt 0.546875 0.4375
vt 0.546875 0.421875
vt 0.53125 0.421875
vt 0.0 0.4375
vt 0.046875 0.4375
vt 0.046875 0.421875
vt 0.0 0.421875
vt 0.5625 0.46875
vt 0.578125 0.46875
vt 0.578125 0.453125
vt 0.5625 0.453125
vt 0.0625 0.4375
vt 0.109375 0.4375
vt 0.109375 0.421875
vt 0.0625 0.421875
vt 0.140625 0.390625
vt 0.125 0.390625
vt 0.125 0.4375
vt 0.140625 0.4375
vt 0.171875 0.4375
vt 0.15625 0.4375
vt 0.15625 0.390625
vt 0.171875 0.390625
vt 0.46875 0.59375
vt 0.5390625 0.59375
vt 0.5390625 0.5703125
vt 0.46875 0.5703125
vt 0.53125 0.84375
vt 0.578125 0.84375
vt 0.578125 0.8203125
vt 0.53125 0.8203125
vt 0.0625 0.5
vt 0.1328125 0.5
vt 0.1328125 0.4765625
vt 0.0625 0.4765625
vt 0.1875 0.46875
vt 0.234375 0.46875
vt 0.234375 0.4453125
vt 0.1875 0.4453125
vt 0.5078125 0.734375
vt 0.4375 0.734375
vt 0.4375 0.78125
vt 0.5078125 0.78125
vt 0.5078125 0.71875
vt 0.4375 0.71875
vt 0.4375 0.671875
vt 0.5078125 0.671875
vt 0.5625 0.5625
vt 0.6015625 0.5625
vt 0.6015625 0.5546875
vt 0.5625 0.5546875
vt 0.375 0.4375
vt 0.421875 0.4375
vt 0.421875 0.4296875
vt 0.375 0.4296875
vt 0.5625 0.53125
vt 0.6015625 0.53125
vt 0.6015625 0.5234375
vt 0.5625 0.5234375
vt 0.5625 0.625
vt 0.609375 0.625
vt 0.609375 0.6171875
vt 0.5625 0.6171875
vt 0.4765625 0.515625
vt 0.4375 0.515625
vt 0.4375 0.5625
vt 0.4765625 0.5625
vt 0.0390625 0.53125
vt 0.0 0.53125
vt 0.0 0.484375
vt 0.0390625 0.484375
vt 0.0 0.71875
vt 0.21875 0.71875
vt 0.21875 0.6875
vt 0.0 0.6875
vt 0.5 0.5625
vt 0.546875 0.5625
vt 0.546875 0.53125
vt 0.5 0.53125
vt 0.21875 0.71875
vt 0.4375 0.71875
vt 0.4375 0.6875
vt 0.21875 0.6875
vt 0.46875 0.5
vt 0.515625 0.5
vt 0.515625 0.46875
vt 0.46875 0.46875
vt 0.21875 0.828125
vt 0.0 0.828125
vt 0.0 0.875
vt 0.21875 0.875
vt 0.21875 0.8125
vt 0.0 0.8125
vt 0.0 0.765625
vt 0.21875 0.765625
vt 0.25 0.9375
vt 0.4375 0.9375
vt 0.4375 0.890625
vt 0.25 0.890625
vt 0.40625 0.5625
vt 0.421875 0.5625
vt 0.421875 0.515625
vt 0.40625 0.515625
vt 0.25 0.875
vt 0.4375 0.875
vt 0.4375 0.828125
vt 0.25 0.828125
vt 0.4375 0.5625
vt 0.453125 0.5625
vt 0.453125 0.515625
vt 0.4375 0.515625
vt 0.5625 0.671875
vt 0.375 0.671875
vt 0.375 0.6875
vt 0.5625 0.6875
vt 0.5625 0.65625
vt 0.375 0.65625
vt 0.375 0.640625
vt 0.5625 0.640625
vt 0.1875 0.6875
vt 0.2578125 0.6875
vt 0.2578125 0.640625
vt 0.1875 0.640625
vt 0.46875 0.96875
vt 0.484375 0.96875
vt 0.484375 0.921875
vt 0.46875 0.921875
vt 0.28125 0.6875
vt 0.3515625 0.6875
vt 0.3515625 0.640625
vt 0.28125 0.640625
vt 0.46875 0.90625
vt 0.484375 0.90625
vt 0.484375 0.859375
vt 0.46875 0.859375
vt 0.4765625 0.578125
vt 0.40625 0.578125
vt 0.40625 0.59375
vt 0.4765625 0.59375
vt 0.5078125 1.0
vt 0.4375 1.0
vt 0.4375 0.984375
vt 0.5078125 0.984375
vt 0.4375 0.96875
vt 0.59375 0.96875
vt 0.59375 0.9375
vt 0.4375 0.9375
vt 0.0625 0.46875
vt 0.1015625 0.46875
vt 0.1015625 0.4375
vt 0.0625 0.4375
vt 0.4375 0.9375
vt 0.59375 0.9375
vt 0.59375 0.90625
vt 0.4375 0.90625
vt 0.53125 0.90625
vt 0.5703125 0.90625
vt 0.5703125 0.875
vt 0.53125 0.875
vt 0.15625 0.5546875
vt 0.0 0.5546875
vt 0.0 0.59375
vt 0.15625 0.59375
vt 0.3125 0.59375
vt 0.15625 0.59375
vt 0.15625 0.5546875
vt 0.3125 0.5546875
vt 0.4375 0.84375
vt 0.4765625 0.84375
vt 0.4765625 0.828125
vt 0.4375 0.828125
vt 0.5 0.90625
vt 0.515625 0.90625
vt 0.515625 0.890625
vt 0.5 0.890625
vt 0.46875 0.75
vt 0.5078125 0.75
vt 0.5078125 0.734375
vt 0.46875 0.734375
vt 0.125 0.5
vt 0.140625 0.5
vt 0.140625 0.484375
vt 0.125 0.484375
vt 0.5078125 0.703125
vt 0.46875 0.703125
vt 0.46875 0.71875
vt 0.5078125 0.71875
vt 0.3515625 0.53125
vt 0.3125 0.53125
vt 0.3125 0.515625
vt 0.3515625 0.515625
vt 0.5625 0.75
vt 0.5859375 0.75
vt 0.5859375 0.7265625
vt 0.5625 0.7265625
vt 0.28125 0.46875
vt 0.3203125 0.46875
vt 0.3203125 0.4453125
vt 0.28125 0.4453125
vt 0.28125 0.4375
vt 0.3046875 0.4375
vt 0.3046875 0.4140625
vt 0.28125 0.4140625
vt 0.53125 0.6875
vt 0.5703125 0.6875
vt 0.5703125 0.6640625
vt 0.53125 0.6640625
vt 0.3671875 0.4296875
vt 0.34375 0.4296875
vt 0.34375 0.46875
vt 0.3671875 0.46875
vt 0.5546875 0.65625
vt 0.53125 0.65625
vt 0.53125 0.6171875
vt 0.5546875 0.6171875

# Normals
vn 0 0 -1
vn 1 0 0
vn 0 0 1
vn -1 0 0
vn 0 1 0
vn 0 -1 0

usemtl core_glow
f 257/769/1 258/770/1 259/771/1
f 257/769/1 259/771/1 260/772/1
f 258/773/2 262/774/2 263/775/2
f 258/773/2 263/775/2 259/776/2
f 262/777/3 261/778/3 264/779/3
f 262/777/3 264/779/3 263/780/3
f 261/781/4 257/782/4 260/783/4
f 261/781/4 260/783/4 264/784/4
f 260/785/5 259/786/5 263/787/5
f 260/785/5 263/787/5 264/788/5
f 261/789/6 262/790/6 258/791/6
f 261/789/6 258/791/6 257/792/6

usemtl metal_detail
f 25/73/1 26/74/1 27/75/1
f 25/73/1 27/75/1 28/76/1
f 26/77/2 30/78/2 31/79/2
f 26/77/2 31/79/2 27/80/2
f 30/81/3 29/82/3 32/83/3
f 30/81/3 32/83/3 31/84/3
f 29/85/4 25/86/4 28/87/4
f 29/85/4 28/87/4 32/88/4
f 28/89/5 27/90/5 31/91/5
f 28/89/5 31/91/5 32/92/5
f 29/93/6 30/94/6 26/95/6
f 29/93/6 26/95/6 25/96/6
f 33/97/1 34/98/1 35/99/1
f 33/97/1 35/99/1 36/100/1
f 34/101/2 38/102/2 39/103/2
f 34/101/2 39/103/2 35/104/2
f 38/105/3 37/106/3 40/107/3
f 38/105/3 40/107/3 39/108/3
f 37/109/4 33/110/4 36/111/4
f 37/109/4 36/111/4 40/112/4
f 36/113/5 35/114/5 39/115/5
f 36/113/5 39/115/5 40/116/5
f 37/117/6 38/118/6 34/119/6
f 37/117/6 34/119/6 33/120/6
f 41/121/1 42/122/1 43/123/1
f 41/121/1 43/123/1 44/124/1
f 42/125/2 46/126/2 47/127/2
f 42/125/2 47/127/2 43/128/2
f 46/129/3 45/130/3 48/131/3
f 46/129/3 48/131/3 47/132/3
f 45/133/4 41/134/4 44/135/4
f 45/133/4 44/135/4 48/136/4
f 44/137/5 43/138/5 47/139/5
f 44/137/5 47/139/5 48/140/5
f 45/141/6 46/142/6 42/143/6
f 45/141/6 42/143/6 41/144/6
f 49/145/1 50/146/1 51/147/1
f 49/145/1 51/147/1 52/148/1
f 50/149/2 54/150/2 55/151/2
f 50/149/2 55/151/2 51/152/2
f 54/153/3 53/154/3 56/155/3
f 54/153/3 56/155/3 55/156/3
f 53/157/4 49/158/4 52/159/4
f 53/157/4 52/159/4 56/160/4
f 52/161/5 51/162/5 55/163/5
f 52/161/5 55/163/5 56/164/5
f 53/165/6 54/166/6 50/167/6
f 53/165/6 50/167/6 49/168/6
f 57/169/1 58/170/1 59/171/1
f 57/169/1 59/171/1 60/172/1
f 58/173/2 62/174/2 63/175/2
f 58/173/2 63/175/2 59/176/2
f 62/177/3 61/178/3 64/179/3
f 62/177/3 64/179/3 63/180/3
f 61/181/4 57/182/4 60/183/4
f 61/181/4 60/183/4 64/184/4
f 60/185/5 59/186/5 63/187/5
f 60/185/5 63/187/5 64/188/5
f 61/189/6 62/190/6 58/191/6
f 61/189/6 58/191/6 57/192/6
f 65/193/1 66/194/1 67/195/1
f 65/193/1 67/195/1 68/196/1
f 66/197/2 70/198/2 71/199/2
f 66/197/2 71/199/2 67/200/2
f 70/201/3 69/202/3 72/203/3
f 70/201/3 72/203/3 71/204/3
f 69/205/4 65/206/4 68/207/4
f 69/205/4 68/207/4 72/208/4
f 68/209/5 67/210/5 71/211/5
f 68/209/5 71/211/5 72/212/5
f 69/213/6 70/214/6 66/215/6
f 69/213/6 66/215/6 65/216/6
f 73/217/1 74/218/1 75/219/1
f 73/217/1 75/219/1 76/220/1
f 74/221/2 78/222/2 79/223/2
f 74/221/2 79/223/2 75/224/2
f 78/225/3 77/226/3 80/227/3
f 78/225/3 80/227/3 79/228/3
f 77/229/4 73/230/4 76/231/4
f 77/229/4 76/231/4 80/232/4
f 76/233/5 75/234/5 79/235/5
f 76/233/5 79/235/5 80/236/5
f 77/237/6 78/238/6 74/239/6
f 77/237/6 74/239/6 73/240/6
f 81/241/1 82/242/1 83/243/1
f 81/241/1 83/243/1 84/244/1
f 82/245/2 86/246/2 87/247/2
f 82/245/2 87/247/2 83/248/2
f 86/249/3 85/250/3 88/251/3
f 86/249/3 88/251/3 87/252/3
f 85/253/4 81/254/4 84/255/4
f 85/253/4 84/255/4 88/256/4
f 84/257/5 83/258/5 87/259/5
f 84/257/5 87/259/5 88/260/5
f 85/261/6 86/262/6 82/263/6
f 85/261/6 82/263/6 81/264/6
f 89/265/1 90/266/1 91/267/1
f 89/265/1 91/267/1 92/268/1
f 90/269/2 94/270/2 95/271/2
f 90/269/2 95/271/2 91/272/2
f 94/273/3 93/274/3 96/275/3
f 94/273/3 96/275/3 95/276/3
f 93/277/4 89/278/4 92/279/4
f 93/277/4 92/279/4 96/280/4
f 92/281/5 91/282/5 95/283/5
f 92/281/5 95/283/5 96/284/5
f 93/285/6 94/286/6 90/287/6
f 93/285/6 90/287/6 89/288/6
f 97/289/1 98/290/1 99/291/1
f 97/289/1 99/291/1 100/292/1
f 98/293/2 102/294/2 103/295/2
f 98/293/2 103/295/2 99/296/2
f 102/297/3 101/298/3 104/299/3
f 102/297/3 104/299/3 103/300/3
f 101/301/4 97/302/4 100/303/4
f 101/301/4 100/303/4 104/304/4
f 100/305/5 99/306/5 103/307/5
f 100/305/5 103/307/5 104/308/5
f 101/309/6 102/310/6 98/311/6
f 101/309/6 98/311/6 97/312/6
f 105/313/1 106/314/1 107/315/1
f 105/313/1 107/315/1 108/316/1
f 106/317/2 110/318/2 111/319/2
f 106/317/2 111/319/2 107/320/2
f 110/321/3 109/322/3 112/323/3
f 110/321/3 112/323/3 111/324/3
f 109/325/4 105/326/4 108/327/4
f 109/325/4 108/327/4 112/328/4
f 108/329/5 107/330/5 111/331/5
f 108/329/5 111/331/5 112/332/5
f 109/333/6 110/334/6 106/335/6
f 109/333/6 106/335/6 105/336/6
f 113/337/1 114/338/1 115/339/1
f 113/337/1 115/339/1 116/340/1
f 114/341/2 118/342/2 119/343/2
f 114/341/2 119/343/2 115/344/2
f 118/345/3 117/346/3 120/347/3
f 118/345/3 120/347/3 119/348/3
f 117/349/4 113/350/4 116/351/4
f 117/349/4 116/351/4 120/352/4
f 116/353/5 115/354/5 119/355/5
f 116/353/5 119/355/5 120/356/5
f 117/357/6 118/358/6 114/359/6
f 117/357/6 114/359/6 113/360/6
f 121/361/1 122/362/1 123/363/1
f 121/361/1 123/363/1 124/364/1
f 122/365/2 126/366/2 127/367/2
f 122/365/2 127/367/2 123/368/2
f 126/369/3 125/370/3 128/371/3
f 126/369/3 128/371/3 127/372/3
f 125/373/4 121/374/4 124/375/4
f 125/373/4 124/375/4 128/376/4
f 124/377/5 123/378/5 127/379/5
f 124/377/5 127/379/5 128/380/5
f 125/381/6 126/382/6 122/383/6
f 125/381/6 122/383/6 121/384/6
f 129/385/1 130/386/1 131/387/1
f 129/385/1 131/387/1 132/388/1
f 130/389/2 134/390/2 135/391/2
f 130/389/2 135/391/2 131/392/2
f 134/393/3 133/394/3 136/395/3
f 134/393/3 136/395/3 135/396/3
f 133/397/4 129/398/4 132/399/4
f 133/397/4 132/399/4 136/400/4
f 132/401/5 131/402/5 135/403/5
f 132/401/5 135/403/5 136/404/5
f 133/405/6 134/406/6 130/407/6
f 133/405/6 130/407/6 129/408/6
f 137/409/1 138/410/1 139/411/1
f 137/409/1 139/411/1 140/412/1
f 138/413/2 142/414/2 143/415/2
f 138/413/2 143/415/2 139/416/2
f 142/417/3 141/418/3 144/419/3
f 142/417/3 144/419/3 143/420/3
f 141/421/4 137/422/4 140/423/4
f 141/421/4 140/423/4 144/424/4
f 140/425/5 139/426/5 143/427/5
f 140/425/5 143/427/5 144/428/5
f 141/429/6 142/430/6 138/431/6
f 141/429/6 138/431/6 137/432/6
f 145/433/1 146/434/1 147/435/1
f 145/433/1 147/435/1 148/436/1
f 146/437/2 150/438/2 151/439/2
f 146/437/2 151/439/2 147/440/2
f 150/441/3 149/442/3 152/443/3
f 150/441/3 152/443/3 151/444/3
f 149/445/4 145/446/4 148/447/4
f 149/445/4 148/447/4 152/448/4
f 148/449/5 147/450/5 151/451/5
f 148/449/5 151/451/5 152/452/5
f 149/453/6 150/454/6 146/455/6
f 149/453/6 146/455/6 145/456/6
f 153/457/1 154/458/1 155/459/1
f 153/457/1 155/459/1 156/460/1
f 154/461/2 158/462/2 159/463/2
f 154/461/2 159/463/2 155/464/2
f 158/465/3 157/466/3 160/467/3
f 158/465/3 160/467/3 159/468/3
f 157/469/4 153/470/4 156/471/4
f 157/469/4 156/471/4 160/472/4
f 156/473/5 155/474/5 159/475/5
f 156/473/5 159/475/5 160/476/5
f 157/477/6 158/478/6 154/479/6
f 157/477/6 154/479/6 153/480/6
f 161/481/1 162/482/1 163/483/1
f 161/481/1 163/483/1 164/484/1
f 162/485/2 166/486/2 167/487/2
f 162/485/2 167/487/2 163/488/2
f 166/489/3 165/490/3 168/491/3
f 166/489/3 168/491/3 167/492/3
f 165/493/4 161/494/4 164/495/4
f 165/493/4 164/495/4 168/496/4
f 164/497/5 163/498/5 167/499/5
f 164/497/5 167/499/5 168/500/5
f 165/501/6 166/502/6 162/503/6
f 165/501/6 162/503/6 161/504/6
f 169/505/1 170/506/1 171/507/1
f 169/505/1 171/507/1 172/508/1
f 170/509/2 174/510/2 175/511/2
f 170/509/2 175/511/2 171/512/2
f 174/513/3 173/514/3 176/515/3
f 174/513/3 176/515/3 175/516/3
f 173/517/4 169/518/4 172/519/4
f 173/517/4 172/519/4 176/520/4
f 172/521/5 171/522/5 175/523/5
f 172/521/5 175/523/5 176/524/5
f 173/525/6 174/526/6 170/527/6
f 173/525/6 170/527/6 169/528/6
f 177/529/1 178/530/1 179/531/1
f 177/529/1 179/531/1 180/532/1
f 178/533/2 182/534/2 183/535/2
f 178/533/2 183/535/2 179/536/2
f 182/537/3 181/538/3 184/539/3
f 182/537/3 184/539/3 183/540/3
f 181/541/4 177/542/4 180/543/4
f 181/541/4 180/543/4 184/544/4
f 180/545/5 179/546/5 183/547/5
f 180/545/5 183/547/5 184/548/5
f 181/549/6 182/550/6 178/551/6
f 181/549/6 178/551/6 177/552/6
f 185/553/1 186/554/1 187/555/1
f 185/553/1 187/555/1 188/556/1
f 186/557/2 190/558/2 191/559/2
f 186/557/2 191/559/2 187/560/2
f 190/561/3 189/562/3 192/563/3
f 190/561/3 192/563/3 191/564/3
f 189/565/4 185/566/4 188/567/4
f 189/565/4 188/567/4 192/568/4
f 188/569/5 187/570/5 191/571/5
f 188/569/5 191/571/5 192/572/5
f 189/573/6 190/574/6 186/575/6
f 189/573/6 186/575/6 185/576/6
f 193/577/1 194/578/1 195/579/1
f 193/577/1 195/579/1 196/580/1
f 194/581/2 198/582/2 199/583/2
f 194/581/2 199/583/2 195/584/2
f 198/585/3 197/586/3 200/587/3
f 198/585/3 200/587/3 199/588/3
f 197/589/4 193/590/4 196/591/4
f 197/589/4 196/591/4 200/592/4
f 196/593/5 195/594/5 199/595/5
f 196/593/5 199/595/5 200/596/5
f 197/597/6 198/598/6 194/599/6
f 197/597/6 194/599/6 193/600/6
f 201/601/1 202/602/1 203/603/1
f 201/601/1 203/603/1 204/604/1
f 202/605/2 206/606/2 207/607/2
f 202/605/2 207/607/2 203/608/2
f 206/609/3 205/610/3 208/611/3
f 206/609/3 208/611/3 207/612/3
f 205/613/4 201/614/4 204/615/4
f 205/613/4 204/615/4 208/616/4
f 204/617/5 203/618/5 207/619/5
f 204/617/5 207/619/5 208/620/5
f 205/621/6 206/622/6 202/623/6
f 205/621/6 202/623/6 201/624/6
f 209/625/1 210/626/1 211/627/1
f 209/625/1 211/627/1 212/628/1
f 210/629/2 214/630/2 215/631/2
f 210/629/2 215/631/2 211/632/2
f 214/633/3 213/634/3 216/635/3
f 214/633/3 216/635/3 215/636/3
f 213/637/4 209/638/4 212/639/4
f 213/637/4 212/639/4 216/640/4
f 212/641/5 211/642/5 215/643/5
f 212/641/5 215/643/5 216/644/5
f 213/645/6 214/646/6 210/647/6
f 213/645/6 210/647/6 209/648/6
f 217/649/1 218/650/1 219/651/1
f 217/649/1 219/651/1 220/652/1
f 218/653/2 222/654/2 223/655/2
f 218/653/2 223/655/2 219/656/2
f 222/657/3 221/658/3 224/659/3
f 222/657/3 224/659/3 223/660/3
f 221/661/4 217/662/4 220/663/4
f 221/661/4 220/663/4 224/664/4
f 220/665/5 219/666/5 223/667/5
f 220/665/5 223/667/5 224/668/5
f 221/669/6 222/670/6 218/671/6
f 221/669/6 218/671/6 217/672/6
f 225/673/1 226/674/1 227/675/1
f 225/673/1 227/675/1 228/676/1
f 226/677/2 230/678/2 231/679/2
f 226/677/2 231/679/2 227/680/2
f 230/681/3 229/682/3 232/683/3
f 230/681/3 232/683/3 231/684/3
f 229/685/4 225/686/4 228/687/4
f 229/685/4 228/687/4 232/688/4
f 228/689/5 227/690/5 231/691/5
f 228/689/5 231/691/5 232/692/5
f 229/693/6 230/694/6 226/695/6
f 229/693/6 226/695/6 225/696/6
f 233/697/1 234/698/1 235/699/1
f 233/697/1 235/699/1 236/700/1
f 234/701/2 238/702/2 239/703/2
f 234/701/2 239/703/2 235/704/2
f 238/705/3 237/706/3 240/707/3
f 238/705/3 240/707/3 239/708/3
f 237/709/4 233/710/4 236/711/4
f 237/709/4 236/711/4 240/712/4
f 236/713/5 235/714/5 239/715/5
f 236/713/5 239/715/5 240/716/5
f 237/717/6 238/718/6 234/719/6
f 237/717/6 234/719/6 233/720/6
f 241/721/1 242/722/1 243/723/1
f 241/721/1 243/723/1 244/724/1
f 242/725/2 246/726/2 247/727/2
f 242/725/2 247/727/2 243/728/2
f 246/729/3 245/730/3 248/731/3
f 246/729/3 248/731/3 247/732/3
f 245/733/4 241/734/4 244/735/4
f 245/733/4 244/735/4 248/736/4
f 244/737/5 243/738/5 247/739/5
f 244/737/5 247/739/5 248/740/5
f 245/741/6 246/742/6 242/743/6
f 245/741/6 242/743/6 241/744/6
f 249/745/1 250/746/1 251/747/1
f 249/745/1 251/747/1 252/748/1
f 250/749/2 254/750/2 255/751/2
f 250/749/2 255/751/2 251/752/2
f 254/753/3 253/754/3 256/755/3
f 254/753/3 256/755/3 255/756/3
f 253/757/4 249/758/4 252/759/4
f 253/757/4 252/759/4 256/760/4
f 252/761/5 251/762/5 255/763/5
f 252/761/5 255/763/5 256/764/5
f 253/765/6 254/766/6 250/767/6
f 253/765/6 250/767/6 249/768/6
f 265/793/1 266/794/1 267/795/1
f 265/793/1 267/795/1 268/796/1
f 266/797/2 270/798/2 271/799/2
f 266/797/2 271/799/2 267/800/2
f 270/801/3 269/802/3 272/803/3
f 270/801/3 272/803/3 271/804/3
f 269/805/4 265/806/4 268/807/4
f 269/805/4 268/807/4 272/808/4
f 268/809/5 267/810/5 271/811/5
f 268/809/5 271/811/5 272/812/5
f 269/813/6 270/814/6 266/815/6
f 269/813/6 266/815/6 265/816/6
f 273/817/1 274/818/1 275/819/1
f 273/817/1 275/819/1 276/820/1
f 274/821/2 278/822/2 279/823/2
f 274/821/2 279/823/2 275/824/2
f 278/825/3 277/826/3 280/827/3
f 278/825/3 280/827/3 279/828/3
f 277/829/4 273/830/4 276/831/4
f 277/829/4 276/831/4 280/832/4
f 276/833/5 275/834/5 279/835/5
f 276/833/5 279/835/5 280/836/5
f 277/837/6 278/838/6 274/839/6
f 277/837/6 274/839/6 273/840/6
f 281/841/1 282/842/1 283/843/1
f 281/841/1 283/843/1 284/844/1
f 282/845/2 286/846/2 287/847/2
f 282/845/2 287/847/2 283/848/2
f 286/849/3 285/850/3 288/851/3
f 286/849/3 288/851/3 287/852/3
f 285/853/4 281/854/4 284/855/4
f 285/853/4 284/855/4 288/856/4
f 284/857/5 283/858/5 287/859/5
f 284/857/5 287/859/5 288/860/5
f 285/861/6 286/862/6 282/863/6
f 285/861/6 282/863/6 281/864/6
f 289/865/1 290/866/1 291/867/1
f 289/865/1 291/867/1 292/868/1
f 290/869/2 294/870/2 295/871/2
f 290/869/2 295/871/2 291/872/2
f 294/873/3 293/874/3 296/875/3
f 294/873/3 296/875/3 295/876/3
f 293/877/4 289/878/4 292/879/4
f 293/877/4 292/879/4 296/880/4
f 292/881/5 291/882/5 295/883/5
f 292/881/5 295/883/5 296/884/5
f 293/885/6 294/886/6 290/887/6
f 293/885/6 290/887/6 289/888/6

usemtl base_body
f 1/1/1 2/2/1 3/3/1
f 1/1/1 3/3/1 4/4/1
f 2/5/2 6/6/2 7/7/2
f 2/5/2 7/7/2 3/8/2
f 6/9/3 5/10/3 8/11/3
f 6/9/3 8/11/3 7/12/3
f 5/13/4 1/14/4 4/15/4
f 5/13/4 4/15/4 8/16/4
f 4/17/5 3/18/5 7/19/5
f 4/17/5 7/19/5 8/20/5
f 5/21/6 6/22/6 2/23/6
f 5/21/6 2/23/6 1/24/6
f 9/25/1 10/26/1 11/27/1
f 9/25/1 11/27/1 12/28/1
f 10/29/2 14/30/2 15/31/2
f 10/29/2 15/31/2 11/32/2
f 14/33/3 13/34/3 16/35/3
f 14/33/3 16/35/3 15/36/3
f 13/37/4 9/38/4 12/39/4
f 13/37/4 12/39/4 16/40/4
f 12/41/5 11/42/5 15/43/5
f 12/41/5 15/43/5 16/44/5
f 13/45/6 14/46/6 10/47/6
f 13/45/6 10/47/6 9/48/6
f 17/49/1 18/50/1 19/51/1
f 17/49/1 19/51/1 20/52/1
f 18/53/2 22/54/2 23/55/2
f 18/53/2 23/55/2 19/56/2
f 22/57/3 21/58/3 24/59/3
f 22/57/3 24/59/3 23/60/3
f 21/61/4 17/62/4 20/63/4
f 21/61/4 20/63/4 24/64/4
f 20/65/5 19/66/5 23/67/5
f 20/65/5 23/67/5 24/68/5
f 21/69/6 22/70/6 18/71/6
f 21/69/6 18/71/6 17/72/6

usemtl energy_rune
f 305/913/1 306/914/1 307/915/1
f 305/913/1 307/915/1 308/916/1
f 306/917/2 310/918/2 311/919/2
f 306/917/2 311/919/2 307/920/2
f 310/921/3 309/922/3 312/923/3
f 310/921/3 312/923/3 311/924/3
f 309/925/4 305/926/4 308/927/4
f 309/925/4 308/927/4 312/928/4
f 308/929/5 307/930/5 311/931/5
f 308/929/5 311/931/5 312/932/5
f 309/933/6 310/934/6 306/935/6
f 309/933/6 306/935/6 305/936/6
f 313/937/1 314/938/1 315/939/1
f 313/937/1 315/939/1 316/940/1
f 314/941/2 318/942/2 319/943/2
f 314/941/2 319/943/2 315/944/2
f 318/945/3 317/946/3 320/947/3
f 318/945/3 320/947/3 319/948/3
f 317/949/4 313/950/4 316/951/4
f 317/949/4 316/951/4 320/952/4
f 316/953/5 315/954/5 319/955/5
f 316/953/5 319/955/5 320/956/5
f 317/957/6 318/958/6 314/959/6
f 317/957/6 314/959/6 313/960/6
f 353/1057/1 354/1058/1 355/1059/1
f 353/1057/1 355/1059/1 356/1060/1
f 354/1061/2 358/1062/2 359/1063/2
f 354/1061/2 359/1063/2 355/1064/2
f 358/1065/3 357/1066/3 360/1067/3
f 358/1065/3 360/1067/3 359/1068/3
f 357/1069/4 353/1070/4 356/1071/4
f 357/1069/4 356/1071/4 360/1072/4
f 356/1073/5 355/1074/5 359/1075/5
f 356/1073/5 359/1075/5 360/1076/5
f 357/1077/6 358/1078/6 354/1079/6
f 357/1077/6 354/1079/6 353/1080/6
f 377/1129/1 378/1130/1 379/1131/1
f 377/1129/1 379/1131/1 380/1132/1
f 378/1133/2 382/1134/2 383/1135/2
f 378/1133/2 383/1135/2 379/1136/2
f 382/1137/3 381/1138/3 384/1139/3
f 382/1137/3 384/1139/3 383/1140/3
f 381/1141/4 377/1142/4 380/1143/4
f 381/1141/4 380/1143/4 384/1144/4
f 380/1145/5 379/1146/5 383/1147/5
f 380/1145/5 383/1147/5 384/1148/5
f 381/1149/6 382/1150/6 378/1151/6
f 381/1149/6 378/1151/6 377/1152/6
f 385/1153/1 386/1154/1 387/1155/1
f 385/1153/1 387/1155/1 388/1156/1
f 386/1157/2 390/1158/2 391/1159/2
f 386/1157/2 391/1159/2 387/1160/2
f 390/1161/3 389/1162/3 392/1163/3
f 390/1161/3 392/1163/3 391/1164/3
f 389/1165/4 385/1166/4 388/1167/4
f 389/1165/4 388/1167/4 392/1168/4
f 388/1169/5 387/1170/5 391/1171/5
f 388/1169/5 391/1171/5 392/1172/5
f 389/1173/6 390/1174/6 386/1175/6
f 389/1173/6 386/1175/6 385/1176/6
f 433/1297/1 434/1298/1 435/1299/1
f 433/1297/1 435/1299/1 436/1300/1
f 434/1301/2 438/1302/2 439/1303/2
f 434/1301/2 439/1303/2 435/1304/2
f 438/1305/3 437/1306/3 440/1307/3
f 438/1305/3 440/1307/3 439/1308/3
f 437/1309/4 433/1310/4 436/1311/4
f 437/1309/4 436/1311/4 440/1312/4
f 436/1313/5 435/1314/5 439/1315/5
f 436/1313/5 439/1315/5 440/1316/5
f 437/1317/6 438/1318/6 434/1319/6
f 437/1317/6 434/1319/6 433/1320/6
f 441/1321/1 442/1322/1 443/1323/1
f 441/1321/1 443/1323/1 444/1324/1
f 442/1325/2 446/1326/2 447/1327/2
f 442/1325/2 447/1327/2 443/1328/2
f 446/1329/3 445/1330/3 448/1331/3
f 446/1329/3 448/1331/3 447/1332/3
f 445/1333/4 441/1334/4 444/1335/4
f 445/1333/4 444/1335/4 448/1336/4
f 444/1337/5 443/1338/5 447/1339/5
f 444/1337/5 447/1339/5 448/1340/5
f 445/1341/6 446/1342/6 442/1343/6
f 445/1341/6 442/1343/6 441/1344/6
f 489/1465/1 490/1466/1 491/1467/1
f 489/1465/1 491/1467/1 492/1468/1
f 490/1469/2 494/1470/2 495/1471/2
f 490/1469/2 495/1471/2 491/1472/2
f 494/1473/3 493/1474/3 496/1475/3
f 494/1473/3 496/1475/3 495/1476/3
f 493/1477/4 489/1478/4 492/1479/4
f 493/1477/4 492/1479/4 496/1480/4
f 492/1481/5 491/1482/5 495/1483/5
f 492/1481/5 495/1483/5 496/1484/5
f 493/1485/6 494/1486/6 490/1487/6
f 493/1485/6 490/1487/6 489/1488/6
f 497/1489/1 498/1490/1 499/1491/1
f 497/1489/1 499/1491/1 500/1492/1
f 498/1493/2 502/1494/2 503/1495/2
f 498/1493/2 503/1495/2 499/1496/2
f 502/1497/3 501/1498/3 504/1499/3
f 502/1497/3 504/1499/3 503/1500/3
f 501/1501/4 497/1502/4 500/1503/4
f 501/1501/4 500/1503/4 504/1504/4
f 500/1505/5 499/1506/5 503/1507/5
f 500/1505/5 503/1507/5 504/1508/5
f 501/1509/6 502/1510/6 498/1511/6
f 501/1509/6 498/1511/6 497/1512/6
f 513/1537/1 514/1538/1 515/1539/1
f 513/1537/1 515/1539/1 516/1540/1
f 514/1541/2 518/1542/2 519/1543/2
f 514/1541/2 519/1543/2 515/1544/2
f 518/1545/3 517/1546/3 520/1547/3
f 518/1545/3 520/1547/3 519/1548/3
f 517/1549/4 513/1550/4 516/1551/4
f 517/1549/4 516/1551/4 520/1552/4
f 516/1553/5 515/1554/5 519/1555/5
f 516/1553/5 519/1555/5 520/1556/5
f 517/1557/6 518/1558/6 514/1559/6
f 517/1557/6 514/1559/6 513/1560/6

usemtl ornament
f 297/889/1 298/890/1 299/891/1
f 297/889/1 299/891/1 300/892/1
f 298/893/2 302/894/2 303/895/2
f 298/893/2 303/895/2 299/896/2
f 302/897/3 301/898/3 304/899/3
f 302/897/3 304/899/3 303/900/3
f 301/901/4 297/902/4 300/903/4
f 301/901/4 300/903/4 304/904/4
f 300/905/5 299/906/5 303/907/5
f 300/905/5 303/907/5 304/908/5
f 301/909/6 302/910/6 298/911/6
f 301/909/6 298/911/6 297/912/6
f 321/961/1 322/962/1 323/963/1
f 321/961/1 323/963/1 324/964/1
f 322/965/2 326/966/2 327/967/2
f 322/965/2 327/967/2 323/968/2
f 326/969/3 325/970/3 328/971/3
f 326/969/3 328/971/3 327/972/3
f 325/973/4 321/974/4 324/975/4
f 325/973/4 324/975/4 328/976/4
f 324/977/5 323/978/5 327/979/5
f 324/977/5 327/979/5 328/980/5
f 325/981/6 326/982/6 322/983/6
f 325/981/6 322/983/6 321/984/6
f 329/985/1 330/986/1 331/987/1
f 329/985/1 331/987/1 332/988/1
f 330/989/2 334/990/2 335/991/2
f 330/989/2 335/991/2 331/992/2
f 334/993/3 333/994/3 336/995/3
f 334/993/3 336/995/3 335/996/3
f 333/997/4 329/998/4 332/999/4
f 333/997/4 332/999/4 336/1000/4
f 332/1001/5 331/1002/5 335/1003/5
f 332/1001/5 335/1003/5 336/1004/5
f 333/1005/6 334/1006/6 330/1007/6
f 333/1005/6 330/1007/6 329/1008/6
f 337/1009/1 338/1010/1 339/1011/1
f 337/1009/1 339/1011/1 340/1012/1
f 338/1013/2 342/1014/2 343/1015/2
f 338/1013/2 343/1015/2 339/1016/2
f 342/1017/3 341/1018/3 344/1019/3
f 342/1017/3 344/1019/3 343/1020/3
f 341/1021/4 337/1022/4 340/1023/4
f 341/1021/4 340/1023/4 344/1024/4
f 340/1025/5 339/1026/5 343/1027/5
f 340/1025/5 343/1027/5 344/1028/5
f 341/1029/6 342/1030/6 338/1031/6
f 341/1029/6 338/1031/6 337/1032/6
f 345/1033/1 346/1034/1 347/1035/1
f 345/1033/1 347/1035/1 348/1036/1
f 346/1037/2 350/1038/2 351/1039/2
f 346/1037/2 351/1039/2 347/1040/2
f 350/1041/3 349/1042/3 352/1043/3
f 350/1041/3 352/1043/3 351/1044/3
f 349/1045/4 345/1046/4 348/1047/4
f 349/1045/4 348/1047/4 352/1048/4
f 348/1049/5 347/1050/5 351/1051/5
f 348/1049/5 351/1051/5 352/1052/5
f 349/1053/6 350/1054/6 346/1055/6
f 349/1053/6 346/1055/6 345/1056/6
f 361/1081/1 362/1082/1 363/1083/1
f 361/1081/1 363/1083/1 364/1084/1
f 362/1085/2 366/1086/2 367/1087/2
f 362/1085/2 367/1087/2 363/1088/2
f 366/1089/3 365/1090/3 368/1091/3
f 366/1089/3 368/1091/3 367/1092/3
f 365/1093/4 361/1094/4 364/1095/4
f 365/1093/4 364/1095/4 368/1096/4
f 364/1097/5 363/1098/5 367/1099/5
f 364/1097/5 367/1099/5 368/1100/5
f 365/1101/6 366/1102/6 362/1103/6
f 365/1101/6 362/1103/6 361/1104/6
f 369/1105/1 370/1106/1 371/1107/1
f 369/1105/1 371/1107/1 372/1108/1
f 370/1109/2 374/1110/2 375/1111/2
f 370/1109/2 375/1111/2 371/1112/2
f 374/1113/3 373/1114/3 376/1115/3
f 374/1113/3 376/1115/3 375/1116/3
f 373/1117/4 369/1118/4 372/1119/4
f 373/1117/4 372/1119/4 376/1120/4
f 372/1121/5 371/1122/5 375/1123/5
f 372/1121/5 375/1123/5 376/1124/5
f 373/1125/6 374/1126/6 370/1127/6
f 373/1125/6 370/1127/6 369/1128/6
f 449/1345/1 450/1346/1 451/1347/1
f 449/1345/1 451/1347/1 452/1348/1
f 450/1349/2 454/1350/2 455/1351/2
f 450/1349/2 455/1351/2 451/1352/2
f 454/1353/3 453/1354/3 456/1355/3
f 454/1353/3 456/1355/3 455/1356/3
f 453/1357/4 449/1358/4 452/1359/4
f 453/1357/4 452/1359/4 456/1360/4
f 452/1361/5 451/1362/5 455/1363/5
f 452/1361/5 455/1363/5 456/1364/5
f 453/1365/6 454/1366/6 450/1367/6
f 453/1365/6 450/1367/6 449/1368/6
f 457/1369/1 458/1370/1 459/1371/1
f 457/1369/1 459/1371/1 460/1372/1
f 458/1373/2 462/1374/2 463/1375/2
f 458/1373/2 463/1375/2 459/1376/2
f 462/1377/3 461/1378/3 464/1379/3
f 462/1377/3 464/1379/3 463/1380/3
f 461/1381/4 457/1382/4 460/1383/4
f 461/1381/4 460/1383/4 464/1384/4
f 460/1385/5 459/1386/5 463/1387/5
f 460/1385/5 463/1387/5 464/1388/5
f 461/1389/6 462/1390/6 458/1391/6
f 461/1389/6 458/1391/6 457/1392/6
f 465/1393/1 466/1394/1 467/1395/1
f 465/1393/1 467/1395/1 468/1396/1
f 466/1397/2 470/1398/2 471/1399/2
f 466/1397/2 471/1399/2 467/1400/2
f 470/1401/3 469/1402/3 472/1403/3
f 470/1401/3 472/1403/3 471/1404/3
f 469/1405/4 465/1406/4 468/1407/4
f 469/1405/4 468/1407/4 472/1408/4
f 468/1409/5 467/1410/5 471/1411/5
f 468/1409/5 471/1411/5 472/1412/5
f 469/1413/6 470/1414/6 466/1415/6
f 469/1413/6 466/1415/6 465/1416/6
f 473/1417/1 474/1418/1 475/1419/1
f 473/1417/1 475/1419/1 476/1420/1
f 474/1421/2 478/1422/2 479/1423/2
f 474/1421/2 479/1423/2 475/1424/2
f 478/1425/3 477/1426/3 480/1427/3
f 478/1425/3 480/1427/3 479/1428/3
f 477/1429/4 473/1430/4 476/1431/4
f 477/1429/4 476/1431/4 480/1432/4
f 476/1433/5 475/1434/5 479/1435/5
f 476/1433/5 479/1435/5 480/1436/5
f 477/1437/6 478/1438/6 474/1439/6
f 477/1437/6 474/1439/6 473/1440/6
f 481/1441/1 482/1442/1 483/1443/1
f 481/1441/1 483/1443/1 484/1444/1
f 482/1445/2 486/1446/2 487/1447/2
f 482/1445/2 487/1447/2 483/1448/2
f 486/1449/3 485/1450/3 488/1451/3
f 486/1449/3 488/1451/3 487/1452/3
f 485/1453/4 481/1454/4 484/1455/4
f 485/1453/4 484/1455/4 488/1456/4
f 484/1457/5 483/1458/5 487/1459/5
f 484/1457/5 487/1459/5 488/1460/5
f 485/1461/6 486/1462/6 482/1463/6
f 485/1461/6 482/1463/6 481/1464/6
f 505/1513/1 506/1514/1 507/1515/1
f 505/1513/1 507/1515/1 508/1516/1
f 506/1517/2 510/1518/2 511/1519/2
f 506/1517/2 511/1519/2 507/1520/2
f 510/1521/3 509/1522/3 512/1523/3
f 510/1521/3 512/1523/3 511/1524/3
f 509/1525/4 505/1526/4 508/1527/4
f 509/1525/4 508/1527/4 512/1528/4
f 508/1529/5 507/1530/5 511/1531/5
f 508/1529/5 511/1531/5 512/1532/5
f 509/1533/6 510/1534/6 506/1535/6
f 509/1533/6 506/1535/6 505/1536/6
f 521/1561/1 522/1562/1 523/1563/1
f 521/1561/1 523/1563/1 524/1564/1
f 522/1565/2 526/1566/2 527/1567/2
f 522/1565/2 527/1567/2 523/1568/2
f 526/1569/3 525/1570/3 528/1571/3
f 526/1569/3 528/1571/3 527/1572/3
f 525/1573/4 521/1574/4 524/1575/4
f 525/1573/4 524/1575/4 528/1576/4
f 524/1577/5 523/1578/5 527/1579/5
f 524/1577/5 527/1579/5 528/1580/5
f 525/1581/6 526/1582/6 522/1583/6
f 525/1581/6 522/1583/6 521/1584/6

usemtl crystal
f 393/1177/1 394/1178/1 395/1179/1
f 393/1177/1 395/1179/1 396/1180/1
f 394/1181/2 398/1182/2 399/1183/2
f 394/1181/2 399/1183/2 395/1184/2
f 398/1185/3 397/1186/3 400/1187/3
f 398/1185/3 400/1187/3 399/1188/3
f 397/1189/4 393/1190/4 396/1191/4
f 397/1189/4 396/1191/4 400/1192/4
f 396/1193/5 395/1194/5 399/1195/5
f 396/1193/5 399/1195/5 400/1196/5
f 397/1197/6 398/1198/6 394/1199/6
f 397/1197/6 394/1199/6 393/1200/6

usemtl particle
f 401/1201/1 402/1202/1 403/1203/1
f 401/1201/1 403/1203/1 404/1204/1
f 402/1205/2 406/1206/2 407/1207/2
f 402/1205/2 407/1207/2 403/1208/2
f 406/1209/3 405/1210/3 408/1211/3
f 406/1209/3 408/1211/3 407/1212/3
f 405/1213/4 401/1214/4 404/1215/4
f 405/1213/4 404/1215/4 408/1216/4
f 404/1217/5 403/1218/5 407/1219/5
f 404/1217/5 407/1219/5 408/1220/5
f 405/1221/6 406/1222/6 402/1223/6
f 405/1221/6 402/1223/6 401/1224/6
f 409/1225/1 410/1226/1 411/1227/1
f 409/1225/1 411/1227/1 412/1228/1
f 410/1229/2 414/1230/2 415/1231/2
f 410/1229/2 415/1231/2 411/1232/2
f 414/1233/3 413/1234/3 416/1235/3
f 414/1233/3 416/1235/3 415/1236/3
f 413/1237/4 409/1238/4 412/1239/4
f 413/1237/4 412/1239/4 416/1240/4
f 412/1241/5 411/1242/5 415/1243/5
f 412/1241/5 415/1243/5 416/1244/5
f 413/1245/6 414/1246/6 410/1247/6
f 413/1245/6 410/1247/6 409/1248/6
f 417/1249/1 418/1250/1 419/1251/1
f 417/1249/1 419/1251/1 420/1252/1
f 418/1253/2 422/1254/2 423/1255/2
f 418/1253/2 423/1255/2 419/1256/2
f 422/1257/3 421/1258/3 424/1259/3
f 422/1257/3 424/1259/3 423/1260/3
f 421/1261/4 417/1262/4 420/1263/4
f 421/1261/4 420/1263/4 424/1264/4
f 420/1265/5 419/1266/5 423/1267/5
f 420/1265/5 423/1267/5 424/1268/5
f 421/1269/6 422/1270/6 418/1271/6
f 421/1269/6 418/1271/6 417/1272/6
f 425/1273/1 426/1274/1 427/1275/1
f 425/1273/1 427/1275/1 428/1276/1
f 426/1277/2 430/1278/2 431/1279/2
f 426/1277/2 431/1279/2 427/1280/2
f 430/1281/3 429/1282/3 432/1283/3
f 430/1281/3 432/1283/3 431/1284/3
f 429/1285/4 425/1286/4 428/1287/4
f 429/1285/4 428/1287/4 432/1288/4
f 428/1289/5 427/1290/5 431/1291/5
f 428/1289/5 431/1291/5 432/1292/5
f 429/1293/6 430/1294/6 426/1295/6
f 429/1293/6 426/1295/6 425/1296/6
